<svg xmlns="http://www.w3.org/2000/svg" xmlns:xlink="http://www.w3.org/1999/xlink" width="183" height="44" viewBox="0 0 183 44">
    <defs>
        <path id="prefix__a" d="M0 40.964L178.425 40.964 178.425 0 0 0z"/>
    </defs>
    <g fill="none" fill-rule="evenodd" transform="translate(2.745 1.833)">
        <path fill="#FFF" d="M57.3 14.584c.598 2.317 2.5 4.574 6.821 5.915l-.016.184c-.926.167-1.477.655-1.618 1.66-3.6-1.753-4.888-4.786-5.39-7.348-.568 3.248-2.28 5.671-7.718 7.349l-.126-.229c4.291-2.011 5.547-4.467 5.926-7.53h-5.376l-.126-.443h5.548c.11-1.235.11-2.546.11-3.994h-4.622l-.124-.442h9.351l1.084-1.327s1.227.9 1.982 1.525c-.048.167-.237.244-.456.244h-5.123c-.033 1.448-.064 2.773-.19 3.994h3.631l1.1-1.343s1.243.9 1.981 1.541c-.048.168-.22.244-.456.244H57.3zM73.56 7.448c5.555.317 4.46 4.292 2.411 3.234-.442-1.134-1.57-2.38-2.522-3.108l.111-.126zm8.014 12.087s1.27.963 2.063 1.625c-.047.175-.222.253-.46.253H68.894l-.126-.443h6.363v-4.763h-4.508l-.127-.459h4.635v-4.039h-5.174l-.125-.442H79.86l1.11-1.388s1.238.93 2.001 1.577c-.048.175-.223.253-.461.253h-5.332v4.039h2.159l1.079-1.34s1.207.898 1.935 1.546c-.031.173-.221.253-.428.253h-4.745v4.763h3.27l1.126-1.435zM97.522 11.455c-.23.572-.491 1.112-.75 1.62.275 1.208.642 2.29 1.148 3.26.597-1.495.904-3.133 1.026-4.88h-1.424zm-5.773.635h.06c.445-.683.843-1.366 1.21-2.05h-1.27v2.05zm9.158-.635c-.26 2.447-.842 4.61-2.007 6.422.857 1.113 1.96 2.019 3.323 2.687l-.046.158c-.843.175-1.348.669-1.562 1.51-1.133-.827-1.975-1.907-2.604-3.196-1.24 1.4-2.97 2.513-5.36 3.277l-.105-.16c2.296-1.24 3.827-2.814 4.822-4.64-.398-1.194-.688-2.513-.887-3.928-.52.905-1.134 1.7-1.837 2.369l-.2-.127c.443-.923.857-2.052 1.209-3.292-.046.017-.092.017-.153.017h-2.48c-.474.572-.98 1.128-1.532 1.653h1.118l.812-.875 1.5 1.351c-.122.128-.29.159-.597.191-.49.302-1.087.684-1.684.986l.49.047c-.045.24-.183.35-.505.397v.654c.918-.128 1.914-.271 2.894-.414l.03.222c-.78.319-1.745.683-2.924 1.097v2.369c0 1.255-.26 1.923-2.22 2.114-.047-.556-.123-.97-.353-1.224-.245-.27-.567-.462-1.302-.589v-.222s1.578.097 1.883.097c.23 0 .307-.064.307-.256v-1.717c-.644.223-1.348.445-2.098.684-.076.19-.245.333-.414.381l-.75-1.923c.69-.063 1.853-.19 3.262-.382v-1.494l.904.08c.245-.35.49-.763.689-1.113h-1.546c-1.026.906-2.176 1.732-3.478 2.384l-.152-.176c.872-.635 1.699-1.397 2.45-2.208h-1.47l-.138-.461h2.007c.46-.525.887-1.081 1.285-1.653h-3.86l-.122-.462h2.543v-2.05h-1.807l-.122-.446h1.929V7.448l2.266.19c-.03.24-.153.383-.566.447v1.51h.046l.72-1.018s.429.366.842.763c.29-.588.52-1.161.72-1.702l2.006 1.002c-.093.176-.245.27-.629.207-.536 1.05-1.225 2.162-2.068 3.243h.476l.72-.986s.673.558 1.18 1.05c.382-1.479.688-3.085.825-4.674l2.465.605c-.046.206-.228.348-.597.364-.214.907-.473 1.749-.765 2.545h1.775l.95-1.272s1.072.89 1.7 1.479c-.046.173-.198.254-.413.254h-.795z"/>
        <mask id="prefix__b" fill="#fff">
            <use xlink:href="#prefix__a"/>
        </mask>
        <path fill="#FFF" d="M118.214 17.453h1.222v-2.287h-1.222v2.287zm-.001-2.731h1.222v-2.144h-1.222v2.144zm-2.678 2.73h1.096v-2.286h-1.096v2.287zm0-2.73h1.096v-2.144h-1.096v2.144zm-4.404 1.445h.8v-1.811h-.8v1.81zm0-2.255h.8v-1.89h-.8v1.89zm-2.241 2.255h.751v-1.811h-.751v1.81zm0-2.255h.751v-1.89h-.751v1.89zm9.323-3.192v1.413h1.066l.752-.858 1.598 1.254c-.096.113-.298.239-.58.286v7.496c0 1.206-.204 1.842-1.755 1.984-.015-.507-.032-.952-.14-1.19-.111-.27-.283-.445-.658-.524v-.222s.547.03.736.03c.172 0 .204-.078.204-.252v-2.224h-1.223v3.653c0 .206-.672.587-1.269.587h-.313v-4.24h-1.096v3.842c0 .176-.613.54-1.287.54h-.25v-3.318h-2.789v2.906c0 .096-.517.46-1.347.46h-.298v-3.366h-2.57l-.125-.445h2.695v-1.905h-.674v.38c0 .143-.642.494-1.269.494h-.234V10.91l1.58.651h.597v-1.444h-2.554l-.125-.446h2.679V7.448l2.163.19c-.017.207-.143.35-.518.414v1.62h.375l.895-1.192s1.018.81 1.644 1.382c-.046.174-.204.255-.423.255h-2.49v1.444h.595l.674-.715 1.425 1.08c-.078.112-.266.223-.518.27v4.51c-.015.127-.72.477-1.206.477h-.25v-.556h-.72v1.905h.61l.893-1.174s.69.555 1.286 1.063v-7.002l1.613.714h1.019V10.72h-2.852l-.127-.445h2.979V7.56l2.208.222c-.047.24-.172.43-.626.492v2.002h1.019l.596-.81c-.063-.556-.456-1.207-.832-1.573l.14-.095c2.415.111 2.335 1.477 1.616 1.811.329.27.704.588.986.857-.046.174-.205.255-.423.255h-3.102zM130.733 10.764h5.932l1.044-1.428s1.183.998 1.915 1.697c-.047.158-.218.238-.468.238h-8.284l-.14-.507zm7.645 8.026s1.214 1 1.946 1.697c-.046.175-.218.254-.467.254h-9.746l-.14-.507h7.332l1.075-1.444zm-6.914-10.502c-.062.206-.265.35-.622.334-.484 1.22-1.028 2.332-1.65 3.315l.716.27c-.047.142-.187.239-.484.302v9.295c-.03.144-.778.54-1.494.54h-.358V14.08c-.608.666-1.26 1.269-1.947 1.776l-.17-.127c1.354-1.967 2.708-5.14 3.394-8.281l2.615.84zM152.143 12.652c.55 2.945 2.37 5.873 6.767 7.672l-.032.174c-.957.176-1.523.764-1.695 1.846-3.659-2.26-4.836-6.126-5.261-9.31-.47 3.789-2.04 7.035-7.74 9.31l-.141-.238c4.365-2.674 5.588-5.825 5.934-9.454h-5.667l-.126-.461h5.825c.11-1.496.094-3.088.094-4.743l2.636.255c-.044.237-.186.398-.564.462-.03 1.384-.047 2.737-.156 4.026h3.532l1.162-1.449s1.272.972 2.056 1.656c-.046.173-.219.254-.454.254h-6.17zM173.203 11.06c-.08.16-.252.19-.505.127-.157.223-.38.428-.616.65.805.728.38 1.648-.425 1.315-.111-.205-.269-.443-.474-.665-.599.38-1.278.698-1.94.904l-.127-.239c.52-.332 1.041-.76 1.483-1.235-.316-.27-.662-.524-.962-.714l.158-.159c.537.049.979.128 1.34.255.253-.302.442-.635.6-.935l1.468.697zm-4.828-1.584s.536.413.93.793c.41-.317.822-.73 1.183-1.158-.25-.188-.52-.364-.756-.507-.095.032-.236.017-.395-.032-.44.145-1.182.302-1.957.414l.033 1.22h.393l.569-.73zm7.858 7.226s1.104.919 1.751 1.537c-.047.175-.205.254-.442.254h-5.616v1.648c0 1.3-.285 2.011-2.415 2.203-.047-.587-.142-1-.395-1.3-.252-.285-.615-.49-1.452-.618v-.223s1.784.112 2.131.112c.236 0 .315-.063.315-.27v-1.552h-6.042l-.127-.46h6.17v-1.267l1.404.126c.394-.349.803-.745 1.135-1.094h-5.632l-.142-.458h6.027l.994-.953 1.704 1.507c-.142.127-.3.173-.646.191-.696.27-1.61.617-2.51.887-.03.237-.188.348-.52.397v.664h3.313l.995-1.33zm-10.478-2.757c.142.918-.126 1.647-.836 1.965-1.199.506-2.004-1.015-.68-1.71.443-.225.87-.826.853-1.73l.19-.015c.174.365.3.713.395 1.046h.22l-.157-5.34 1.435.286c.49-.35.98-.745 1.248-1l1.26.968.049-.049c.473.018.883.081 1.214.16.237-.317.426-.65.569-.95l1.451.743c-.063.143-.22.174-.504.11-.144.192-.331.366-.536.557.788.633.425 1.472-.317 1.22-.127-.175-.316-.381-.52-.572-.522.35-1.105.667-1.656.888l-.033-.047c-.048.126-.19.174-.362.174h-1.61l.048 1.22h.363l.584-.776s.661.555 1.073.982c-.048.175-.19.254-.396.254h-1.624l.047 1.172h6.785l.048-1.172h-1.296l-.125-.46h1.451l.048-1.22h-1.311l-.142-.444h1.483l.063-1.236h-1.56l-.127-.46h1.546l.694-.824 1.657 1.268c-.126.127-.253.19-.552.222l-.205 4.167.804-.792 1.641 1.585c-.126.127-.283.159-.6.173-.599.367-1.61.888-2.27 1.19l-.144-.112c.126-.364.317-.965.457-1.441h-10.113zM85.264 27.265l.015.023h.182l.003-.042.031-.9-.036-.012c-.23-.06-.438-.107-.62-.14-.186-.038-.353-.06-.497-.084-.15-.016-.284-.03-.409-.036-.125-.003-.247-.006-.366-.006-.114 0-.27.006-.466.015-.2.008-.42.04-.666.092-.247.052-.503.134-.772.248-.272.117-.532.276-.776.478-.222.185-.397.376-.53.57-.126.193-.219.38-.29.566-.063.178-.105.347-.123.504-.016.155-.024.275-.024.372 0 .281.042.553.128.816.085.256.211.496.378.716v-.003c.163.222.369.418.606.585.24.17.512.308.815.41.153.058.308.1.458.126.152.027.287.047.417.06.128.016.24.024.343.025.098.006.175.006.231.006.24 0 .508-.015.804-.048.296-.027.562-.073.793-.128h.001l.283-.075c.094-.023.189-.049.284-.081l.034-.008-.034-.91h-.188l-.013.029c-.014.039-.038.087-.064.146-.026.052-.074.116-.151.193l-.137.107c-.052.04-.126.081-.217.116h-.001c-.115.046-.233.084-.363.112-.125.025-.247.046-.36.061-.114.016-.21.024-.297.026-.087 0-.145.003-.179.003-.094 0-.22-.005-.373-.013-.155-.01-.32-.04-.502-.087-.183-.049-.37-.12-.565-.218-.187-.1-.376-.237-.56-.41v-.005.005c-.067-.066-.147-.15-.226-.252-.08-.1-.155-.219-.224-.356-.067-.136-.125-.292-.173-.47-.045-.175-.07-.374-.07-.593 0-.239.029-.45.087-.636.059-.19.128-.353.211-.495.083-.136.172-.257.266-.35.097-.1.189-.184.27-.241.18-.137.367-.242.56-.318.192-.079.375-.133.549-.166.175-.032.328-.053.468-.062.145-.008.258-.01.332-.01.22 0 .458.019.712.06.247.04.46.122.638.241.114.086.193.168.247.247.058.087.1.154.126.197M87.418 29.192l.767-1.696.73 1.696h-1.497zm-.48 2.32v-.04l-.042-.005c-.053-.008-.108-.027-.157-.05l-.11-.11-.035-.082-.006-.053c-.001-.043.014-.105.044-.183.032-.077.068-.173.117-.288l.452-1.044h1.908l.42 1.007c.027.07.052.134.083.193.028.06.052.123.078.188.014.057.021.1.021.124v.045l-.033.078c-.033.064-.072.099-.125.124-.062.023-.125.043-.194.05l-.037.006-.013.129-.002.053h1.764v-.155l-.03-.015c-.056-.024-.126-.055-.21-.103-.073-.035-.153-.115-.233-.245l-.052-.102-.06-.13-.057-.131-.053-.109-1.972-4.596h-.132l-2.137 4.75c-.054.118-.101.216-.145.298h.001c-.043.075-.087.139-.131.184l-.145.116c-.048.023-.107.043-.18.05l-.04.006v.182h1.442v-.142zM92.94 31.194c-.034.07-.077.127-.13.169l-.157.075-.102.026-.035.008-.011.128-.003.054h1.787v-.182l-.039-.008c-.1-.025-.174-.05-.215-.08l-.126-.091-.082-.13-.031-.149c-.003-.059-.006-.125-.006-.204v-4.255h1.167c.173 0 .305.024.4.067.081.042.148.14.177.329l.007.04h.177v-.923H91.07v.94h.181l.008-.04.027-.146c.012-.055.044-.112.104-.163.052-.043.115-.07.187-.085.076-.02.19-.03.336-.035h1.076v4.319c0 .15-.02.264-.05.336" mask="url(#prefix__b)"/>
        <path fill="#FFF" d="M97.46 31.51v-.041l-.115-.014-.106-.042-.116-.074-.093-.122c-.023-.054-.034-.122-.038-.21-.001-.09-.006-.207-.006-.361V28.93h3.025v1.703c0 .128-.002.243-.007.34-.003.095-.011.164-.015.203l-.032.078-.033.047-.137.111c-.061.022-.124.043-.188.05l-.04.006-.011.13-.004.055h1.75v-.182l-.038-.008c-.072-.014-.13-.032-.184-.056l-.144-.108-.085-.155c-.012-.055-.022-.11-.026-.183l-.009-.162v-3.743c0-.063.002-.159.006-.272.001-.115.014-.203.032-.255l.082-.13.117-.086.118-.044.076-.02.041-.006v-.176h-1.732v.18l.112.013.12.035.117.072.084.128c.017.05.03.114.03.197v1.759h-3.025v-1.43c0-.136.006-.25.012-.345.009-.09.028-.158.048-.202l.086-.111.11-.062.103-.032.074-.02.04-.008v-.174h-1.741V26.244l.121.026.114.035.113.075.085.128c.025.07.038.136.041.2v.086c0 .062 0 .141-.005.238v3.614c0 .129 0 .238-.002.335-.002.1-.013.164-.025.202l-.083.136-.122.089-.116.04-.08.016-.041.008v.182h1.741v-.143zM106.886 29.881c-.073.204-.169.386-.282.546-.119.163-.255.302-.411.421-.157.12-.332.206-.52.269-.19.064-.392.093-.608.093-.252 0-.472-.036-.666-.11-.194-.076-.359-.161-.497-.267l-.003-.001c-.134-.103-.247-.206-.336-.32-.088-.112-.158-.212-.205-.287-.09-.145-.163-.284-.214-.424-.055-.14-.093-.27-.116-.392v-.001c-.023-.123-.037-.236-.048-.33-.007-.103-.008-.185-.008-.256 0-.257.025-.478.073-.68.05-.2.116-.378.19-.528l.003-.003c.076-.15.158-.275.251-.38.092-.105.182-.194.26-.258.12-.096.242-.173.366-.23.127-.062.249-.101.36-.13.11-.03.212-.047.302-.053.09-.008.163-.013.215-.013.205 0 .388.026.547.071.161.05.3.108.42.177.122.066.227.138.308.21v.004c.082.076.15.143.2.207.066.08.133.183.21.304.071.117.137.26.199.428.057.166.103.351.131.56.018.128.028.26.028.401 0 .098-.004.195-.013.295-.003.058-.015.148-.032.265-.019.124-.052.26-.104.412m.236.877c.16-.178.284-.358.377-.542.09-.177.158-.355.203-.52.045-.164.072-.31.082-.448.01-.134.014-.243.014-.336 0-.257-.025-.494-.079-.71-.048-.212-.113-.4-.186-.565-.075-.164-.154-.306-.239-.427-.085-.117-.16-.21-.231-.29-.068-.074-.162-.161-.279-.259-.115-.101-.257-.195-.423-.283-.165-.084-.358-.163-.572-.222-.215-.059-.458-.088-.724-.088-.308 0-.588.04-.833.113-.247.08-.46.17-.642.278-.185.107-.338.222-.467.344-.123.122-.224.227-.298.32-.057.069-.117.156-.186.261-.069.109-.136.237-.198.383-.063.148-.113.315-.158.504-.04.193-.06.404-.06.63 0 .291.033.55.095.78.064.23.146.432.241.612.097.17.2.325.311.442.108.12.204.217.29.29v.002c.267.22.555.386.867.483.309.095.633.144.974.144.429 0 .815-.066 1.167-.2.35-.135.667-.366.954-.696M109.881 26.314l.115.09c.035.032.064.082.086.142.017.05.026.13.032.23.005.108.007.23.007.368v3.25c0 .138 0 .27-.004.402-.001.128-.005.21-.01.247-.012.09-.035.156-.066.199l-.107.124-.124.07-.107.028-.033.008v.182h3.704v-.963h-.162l-.006.04c-.027.083-.049.15-.07.2l-.066.11-.124.084-.148.04c-.054.007-.107.012-.16.012-.053.003-.104.006-.152.006h-.988c-.124-.006-.216-.01-.28-.011-.06-.006-.114-.021-.17-.053-.087-.05-.133-.117-.151-.214-.016-.105-.032-.259-.034-.454v-3.316c.002-.135.01-.25.013-.364.006-.105.013-.182.02-.226.019-.065.043-.109.075-.14l.108-.092.107-.043.08-.02.035-.006v-.176h-1.644V26.243l.108.027.116.044zM115.923 31.397l-.164-.116-.077-.153-.01-.123v-.003L115.67 31c-.008-.06-.014-.118-.014-.179V27.057c0-.127.002-.235.004-.325.002-.091.012-.157.025-.202.018-.063.048-.109.078-.139l.114-.084.12-.037.084-.02.044-.007v-.175h-1.821V26.244l.137.026.13.038.13.087c.038.033.074.084.097.151.02.056.034.12.036.196l.001.315v3.558l-.009.42c-.004.09-.029.168-.077.229v-.002c-.052.07-.106.113-.165.138-.072.03-.146.048-.223.064l-.04.009v.181h1.841v-.177l-.033-.013c-.073-.019-.14-.038-.206-.067M116.668 30.445v-.003c.166.222.37.418.606.585.242.17.514.307.813.41.156.058.308.1.46.126.15.027.29.046.415.06.13.015.244.024.346.025.096.006.175.006.23.006.239 0 .508-.016.801-.049.297-.026.565-.072.796-.127.097-.027.193-.05.285-.075.093-.023.185-.049.285-.081l.033-.008-.035-.91h-.187l-.016.028c-.015.04-.037.088-.063.147-.027.052-.075.116-.151.192l-.135.109c-.054.04-.129.08-.22.115-.114.046-.237.084-.357.112-.13.025-.253.046-.365.062-.113.015-.21.023-.296.026l-.18.002c-.095 0-.22-.005-.377-.013-.152-.01-.32-.04-.5-.087-.182-.049-.366-.12-.56-.217-.192-.1-.378-.238-.564-.412v-.004.004c-.068-.065-.146-.15-.229-.252-.076-.098-.15-.218-.218-.355-.07-.137-.127-.293-.176-.469-.043-.176-.07-.375-.07-.594 0-.239.028-.449.09-.635.057-.19.127-.354.209-.495.083-.136.169-.257.268-.35.096-.102.185-.184.265-.241.185-.139.37-.242.562-.318.193-.08.378-.134.547-.167.177-.032.334-.053.475-.062.139-.008.25-.01.328-.01.221 0 .459.02.709.061.25.04.462.122.64.24.114.085.197.169.248.247.057.087.096.155.126.198l.013.023h.184l.002-.043.033-.9-.04-.012c-.23-.059-.437-.107-.619-.14-.183-.037-.35-.06-.498-.083-.147-.017-.283-.03-.407-.037-.123-.003-.248-.006-.367-.006-.112 0-.27.006-.464.016-.203.008-.425.04-.67.092-.24.051-.5.134-.77.248-.271.116-.528.276-.775.477-.222.185-.396.376-.526.57-.128.193-.226.381-.288.567-.068.177-.112.347-.128.503-.017.155-.024.275-.024.371 0 .282.04.555.128.818.086.255.21.495.378.715M129.638 31.19L129.636 31.187 129.636 31.186z" mask="url(#prefix__b)"/>
        <path fill="#FFF" d="M132.34 26.2v.04l.09.016.096.023.109.046.09.07c.058.066.092.157.095.275v2.737c0 .131 0 .245-.007.34-.013.099-.02.187-.036.265-.01.078-.028.143-.049.202-.022.064-.044.126-.07.192-.035.078-.075.144-.115.203h-.001c-.036.058-.065.096-.085.118-.044.048-.102.098-.174.155-.074.053-.163.1-.264.142-.104.048-.226.086-.363.115h.001c-.136.032-.288.052-.462.052-.256 0-.502-.046-.744-.135l.001.003c-.24-.085-.44-.23-.601-.429-.08-.099-.141-.198-.185-.295-.046-.1-.077-.204-.099-.31-.02-.108-.032-.215-.04-.323-.005-.11-.007-.226-.007-.348V26.96c.007-.106.01-.2.015-.282 0-.077.015-.142.04-.197l.118-.135c.056-.034.147-.072.273-.1l.032-.007.014-.117v-.054h-1.769v.17l.035.008c.152.037.254.082.29.115l.005.001.002.004c.072.052.108.11.118.196.009.094.015.223.015.39v2.589c0 .184.008.336.024.46.022.145.054.283.1.408.054.144.133.29.244.44.105.151.25.281.427.4v.001c.18.122.401.219.657.296.26.072.566.108.923.108.363 0 .67-.042.93-.126.256-.08.468-.186.637-.316.17-.13.3-.274.393-.434.093-.156.16-.313.206-.464.027-.097.048-.197.061-.298.013-.099.022-.196.026-.281 0-.085.003-.161.003-.226v-2.58c0-.136.003-.243.009-.312v-.003c.004-.062.022-.122.065-.175v-.002c.043-.065.093-.103.151-.125.067-.025.141-.046.22-.066l.035-.008V26.068h-1.48v.132zM138.923 26.202v.04l.037.005c.18.038.29.1.333.166.049.072.079.158.087.245v.003l.01.13v.035l-.003.112V30.1l-3.477-4.032h-1.145v.177l.043.005c.07.008.137.023.202.046.055.019.1.06.135.127h.001c.031.05.05.108.05.176.002.072.005.175.005.3v3.84c0 .071-.005.159-.01.263-.01.096-.036.17-.079.22v.001h-.001c-.05.07-.106.11-.166.127-.075.017-.126.027-.147.033l-.039.008-.009.126-.002.053h1.398V31.391l-.037-.008c-.11-.024-.196-.064-.262-.11-.06-.045-.103-.122-.128-.244l-.012-.116v-3.92l4.02 4.66h.136V26.92c.001-.108.008-.218.013-.32.007-.09.045-.168.131-.24l.103-.06c.037-.02.094-.037.165-.052l.033-.005.003-.038.007-.081.006-.055h-1.401v.134zM142.867 31.397l-.164-.116-.074-.153-.012-.123v-.006c-.01-.06-.015-.118-.015-.179V27.057c0-.127 0-.235.003-.325.002-.091.012-.157.026-.202.018-.063.047-.109.08-.139l.115-.084.117-.037.087-.02.041-.007v-.175h-1.818V26.244l.136.026.131.038.13.087c.04.033.074.084.098.151.018.056.03.12.03.196.007.075.007.182.007.315v3.558l-.012.42c-.002.09-.029.168-.076.229v-.002c-.05.07-.106.113-.169.138-.068.03-.139.048-.217.064l-.04.009v.181h1.84v-.177l-.037-.013c-.068-.019-.139-.038-.207-.067M147.242 26.202v.038l.197.053.124.098.027.07.001.052-.015.155-.046.145-.05.119-.025.056-1.448 3.258-1.372-3.257-.064-.15-.048-.154c-.017-.07-.03-.132-.03-.177 0-.069.026-.12.07-.16.04-.036.134-.075.275-.1l.043-.006v-.174h-1.77V26.242l.04.006c.063.014.114.032.152.043l.133.092c.068.059.115.12.146.189.036.072.056.12.066.149.04.078.073.153.11.229.03.077.065.155.094.234l.001.004 1.925 4.466H145.92l2.035-4.532c.04-.093.089-.198.141-.32.052-.118.104-.221.158-.304.056-.084.11-.14.163-.17.053-.035.13-.06.23-.08l.042-.006v-.174h-1.446v.134zM153.165 30.686l-.014.037c-.018.066-.036.127-.058.186l-.09.15-.002.001c-.048.05-.098.077-.159.085-.066.011-.114.015-.132.013h-.004l-.155.017h-.843c-.183-.009-.341-.01-.48-.019-.133-.008-.222-.033-.268-.07l-.05-.056-.028-.043c-.037-.084-.057-.173-.057-.268-.003-.106-.008-.202-.012-.287v-1.525h1.095c.111 0 .219.01.33.03.098.018.169.071.227.183l.035.077.039.133.007.039h.173V27.96H152.546l-.027.114-.037.116-.08.123-.125.084h-.001c-.056.024-.12.037-.188.037h-1.275V26.54h1.362c.096 0 .182.008.263.028.07.02.129.07.177.164l.046.109.034.12.008.035.12.01.047.002.019-.94h-3.272v.18l.116.013.112.033.114.075c.031.037.054.077.074.134h.003v.006c.02.057.03.116.03.183V30.594h.002l-.007.15.003.071v.077l-.003.149c-.004.082-.022.145-.05.21-.028.056-.074.102-.14.139l-.096.046-.109.028-.033.009-.01.127-.002.054h3.713v-.968h-.169zM157.258 27.84c-.024.089-.047.154-.072.186v.005c-.06.106-.128.193-.21.25-.088.067-.182.12-.283.154-.108.031-.217.057-.332.071-.116.013-.232.016-.338.016h-.527l.014-1.967h.542l.111-.002c.108 0 .22.003.332.015.141.015.275.066.402.15h.002c.139.09.24.204.3.35.066.145.098.298.098.456 0 .127-.015.231-.04.316zm1.407 3.512l-.118-.142-.065-.106h-.001c-.086-.13-.166-.268-.24-.415h-.002l-1.046-1.954c.028-.018.055-.031.1-.05h.001c.066-.038.137-.084.217-.143.083-.057.162-.128.24-.21h.003c.081-.085.152-.182.21-.299h.003c.087-.176.134-.375.134-.594 0-.206-.031-.382-.098-.524-.063-.135-.113-.238-.155-.305l-.002-.003c-.1-.132-.216-.24-.35-.313-.127-.066-.262-.122-.407-.156-.14-.035-.29-.057-.438-.062-.15-.008-.29-.008-.434-.008h-1.954V26.244l.104.017.11.033.117.067.087.114c.02.05.037.112.042.188.004.08.009.18.009.311v3.74l-.014.313c-.003.081-.015.146-.03.183l-.078.13-.112.073-.107.042-.074.009-.038.005v.185h1.729v-.182l-.035-.008c-.11-.029-.187-.056-.234-.08l-.123-.091-.081-.148c-.013-.046-.016-.105-.023-.174l-.008-.142-.008-.15v-1.685c.053.002.106.002.153.007.063.003.133.004.204.004.105 0 .209-.004.319-.013.094-.006.19-.019.279-.026l.987 1.843c.058.108.12.218.188.336.071.117.158.22.26.303.063.056.13.096.196.122.068.03.13.048.195.06h-.002c.06.017.118.024.166.024h.469v-.175l-.117-.05-.128-.077zM163.136 28.967h-.001c-.08-.084-.171-.166-.274-.244-.103-.07-.199-.143-.288-.207l-.392-.244c-.115-.078-.233-.164-.356-.26-.118-.09-.2-.21-.257-.355-.023-.063-.034-.123-.036-.176-.005-.052-.006-.094-.006-.117 0-.138.019-.256.065-.359.046-.108.103-.2.177-.264.074-.07.16-.128.264-.162.102-.038.212-.058.329-.058.161 0 .295.027.4.078v-.002c.107.056.192.118.259.192.065.076.117.153.154.236.035.086.07.164.095.227l.01.023h.142V26.333l-.024-.011c-.052-.022-.11-.042-.178-.072-.073-.033-.152-.058-.24-.084-.088-.028-.188-.052-.3-.07-.112-.016-.234-.028-.37-.028-.047 0-.112.001-.192.007-.083.006-.177.019-.275.047-.103.032-.209.071-.315.143-.11.063-.214.148-.31.26-.066.075-.137.183-.207.334-.077.156-.113.356-.113.6 0 .084.005.171.02.27.014.097.042.198.084.301.042.103.104.204.188.317.083.112.192.215.33.322l.002.003.13.091.132.085.43.28c.133.088.256.184.368.28.107.095.19.22.25.38v.004-.003c.013.029.03.08.046.149.02.066.028.143.028.24 0 .143-.018.252-.049.334v.004-.004c-.035.09-.062.16-.081.205-.1.17-.227.294-.382.371-.155.08-.325.12-.507.12-.117 0-.216-.015-.302-.04-.088-.027-.167-.06-.234-.1-.065-.04-.12-.084-.164-.13l-.106-.132-.067-.135c-.024-.049-.054-.12-.089-.215l-.008-.026-.102-.009-.046-.006v.943l.025.014c.109.05.247.11.42.18.178.067.406.102.685.102.05 0 .121-.005.212-.01.09-.004.194-.018.305-.045.112-.03.227-.076.349-.14.125-.064.244-.155.359-.28.1-.104.177-.212.238-.32.058-.11.1-.215.131-.323.03-.101.047-.197.055-.288.007-.083.01-.152.01-.208 0-.423-.142-.782-.421-1.073M166.106 31.397l-.165-.116-.078-.153-.013-.123v-.006c-.008-.06-.012-.118-.012-.179V27.057l.002-.325c.002-.091.01-.157.027-.202.018-.063.046-.109.08-.139l.113-.084.119-.037.085-.02.043-.007v-.175h-1.821V26.244l.136.026.128.038.133.087c.04.033.073.084.097.151.023.056.033.12.035.196.001.075.003.182.003.315v3.558l-.01.42c-.004.09-.03.168-.078.229v-.002c-.053.07-.106.113-.164.138-.073.03-.144.048-.226.064l-.04.009v.181h1.844v-.177l-.033-.013c-.072-.019-.14-.038-.205-.067M167.273 27.007h.184l.008-.04c.003-.027.013-.075.026-.145.01-.055.043-.112.102-.163.053-.043.112-.07.19-.085.072-.02.186-.03.333-.035h1.079v4.319c0 .15-.018.264-.054.336-.032.07-.075.127-.131.169l-.154.075-.101.026-.036.009-.01.127-.006.054h1.79v-.181l-.038-.009c-.098-.024-.173-.05-.215-.08l-.126-.091-.083-.13-.032-.148c-.005-.06-.008-.126-.008-.205v-4.255h1.17c.173 0 .308.024.401.067.084.042.146.14.176.329l.006.04h.176v-.923h-4.647v.94zM175.237 26.068v.18l.038.004c.06.009.116.02.16.032.033.008.063.036.093.095l.036.091.003.052c0 .067-.018.137-.056.21l-.107.208-.984 1.734-1.023-1.736v-.003c-.038-.05-.074-.122-.114-.203-.038-.083-.057-.157-.057-.228 0-.058.013-.098.033-.125l.085-.08.093-.038.061-.012.04-.004v-.177h-1.618V26.242l.034.007c.054.016.098.033.131.05l.093.065.077.092.087.125.066.104.065.1 1.43 2.408v1.617c0 .15-.004.26-.012.329v.006-.006c-.007.064-.035.123-.086.187l-.13.1c-.053.014-.114.029-.182.038l-.038.006-.01.13-.003.054h1.604v-.181l-.036-.009c-.025-.007-.068-.013-.125-.024l-.146-.081c-.07-.066-.107-.142-.12-.247-.011-.107-.016-.209-.016-.306v-1.572l1.432-2.508.137-.23c.045-.07.097-.13.158-.165l.12-.059.082-.023.034-.005v-.176h-1.33zM49.253 26.196v.044l.127.01.124.041.127.073c.034.033.063.07.08.136h.006v.005c.018.037.026.09.026.155v4.311c0 .097-.014.169-.035.214l-.003.002v.007c-.03.094-.078.154-.15.185-.08.04-.168.069-.265.095l-.037.006v.174h1.891V31.48l-.037-.006c-.097-.026-.189-.056-.275-.095-.074-.029-.13-.086-.173-.181l-.045-.112-.011-.125V28.9h1.224c.127.005.254.011.382.024.118.01.204.056.267.144l.06.097c.014.04.027.097.044.166l.007.038h.19v-1.421h-.19l-.02.109-.033.11-.074.121-.121.085c-.055.027-.12.037-.199.04-.078.007-.183.007-.313.007h-1.224v-1.91h1.466c.115.004.23.011.34.032.106.02.182.068.25.165l.062.114.043.127.008.029h.187l.01-.91h-3.716v.129zM57.998 26.192v.041l.09.014.094.03.11.04.09.068c.06.07.089.16.096.276.002.126.002.23.002.315v2.434c0 .13-.002.241-.011.338v.003c-.008.095-.018.183-.032.262-.014.073-.03.14-.052.204-.019.063-.04.125-.07.19-.036.078-.073.144-.11.205-.04.051-.07.093-.092.118-.044.046-.103.096-.175.153-.071.053-.16.101-.263.146-.104.045-.225.082-.36.113-.134.033-.29.05-.463.05-.257 0-.505-.042-.746-.133-.239-.083-.437-.226-.602-.424-.081-.103-.141-.199-.185-.298-.043-.104-.08-.207-.098-.308v-.002c-.02-.109-.034-.216-.038-.327-.004-.111-.007-.226-.007-.346v-2.4l.011-.282c.002-.076.017-.142.04-.194.024-.052.061-.098.118-.137.057-.036.149-.073.273-.1l.033-.008.012-.117.006-.048h-1.77v.158l.035.014c.152.039.252.082.294.117h.002l.003.004c.068.048.107.109.112.195.014.092.02.222.02.39v2.447l-.002.149c0 .183.009.335.025.456.021.147.054.285.099.41.055.147.135.294.244.44.105.152.25.282.427.4.18.126.398.22.657.294.262.074.568.112.923.112.365 0 .674-.04.932-.122.254-.084.47-.19.637-.323.164-.127.297-.27.392-.433.09-.152.16-.311.204-.458v-.003c.027-.098.049-.198.06-.295.016-.104.023-.197.026-.284.005-.086.007-.163.007-.227V26.926c0-.137.002-.244.003-.314.008-.067.03-.126.067-.178.045-.069.094-.107.154-.13.065-.024.142-.048.22-.064l.035-.01v-.162h-1.477v.124zM66.744 30.692l-.01.037c-.021.066-.04.128-.06.186l-.094.15c-.048.048-.1.078-.16.086-.067.014-.113.016-.134.016h-.008l-.147.014h-.847c-.18-.004-.343-.013-.48-.016-.132-.007-.224-.037-.27-.072l-.05-.057-.027-.045c-.037-.083-.057-.17-.06-.268-.002-.106-.007-.199-.012-.287v-1.528h1.1c.11 0 .221.006.331.027.096.015.17.073.232.183l.03.082c.009.026.024.07.04.135l.008.034H66.294v-1.413h-.168l-.027.119-.037.114-.083.123-.124.085-.002.003c-.057.023-.118.032-.187.032h-1.281v-1.9h1.366c.096 0 .184.01.267.03.069.02.126.069.177.163l.046.112.03.12.01.031.12.011.046.006.018-.937h-3.273V26.239l.116.011.114.041.112.073c.032.032.058.07.075.136h.001l.002.004c.023.058.035.117.035.182V30.6l-.008.146.002.078v-.002.074l-.005.152c-.001.08-.02.15-.05.206-.028.06-.07.108-.14.146l-.095.043-.112.03-.03.008-.009.129-.003.045h3.712v-.962h-.164zM72.717 26.194v.04l.04.008c.21.039.337.098.387.164v.001c.057.075.091.155.105.243v.005l.013.124v.041c-.004.057-.004.093-.004.114v3.175l-4.064-4.041h-1.333v.166l.047.008c.082.007.161.025.237.047.064.018.114.058.158.13l.002.003c.036.046.056.102.058.172l.002.002-.002-.002c.005.073.005.17.005.299v3.847c0 .072-.003.16-.013.263-.008.095-.037.17-.09.225h-.001c-.059.067-.122.112-.195.124l-.003.003c-.087.015-.146.027-.173.033l-.036.004-.014.13-.004.043h1.63v-.171l-.042-.006c-.13-.026-.233-.066-.31-.111v-.003c-.07-.043-.121-.12-.148-.24l-.016-.118-.001-.176v-3.756l4.7 4.67h.157v-4.736c.003-.116.007-.222.015-.324.004-.09.052-.168.153-.24l.117-.063c.044-.018.109-.037.194-.049l.037-.007.002-.037.012-.081.005-.05h-1.627v.127zM59.635 26.2v.042l.039.008c.081.012.162.04.238.077.063.029.113.087.145.18.03.096.045.275.043.537v4.737c0 .222-.01.44-.037.653-.023.208-.103.401-.243.574v.005c-.055.068-.117.131-.181.197-.073.062-.12.1-.128.11l-.036.024.077.137.017.035.038-.018c.134-.064.24-.116.315-.16.075-.047.141-.09.2-.132.169-.113.303-.24.402-.373.096-.137.17-.266.22-.396.048-.125.082-.247.096-.366.013-.118.02-.216.026-.298v-4.729c0-.217.008-.383.027-.491.016-.099.068-.171.17-.23l.094-.047c.019-.01.068-.02.137-.026l.04-.008v-.174h-1.7v.131zM16.88 18.69h.484v-.786h-.485v.786zm0 1.44h.484v-.784h-.485v.784zm-.787-1.44h.493v-.786h-.493v.786zm0 1.44h.493v-.784h-.493v.784zm.786-4.303h-.293v.336h-.788v.656h.788v.432h-.788v3.535h.788v.436h-.788v.655h.788v.467h.293v-.467h.778v-.655h-.778v-.436h.778v-3.535h-.778v-.432h.778v-.656h-.778v-.336zM18.734 18.69h.486v-.786h-.486v.786zm0 1.44h.486v-.784h-.486v.784zm-.782-1.44h.486v-.786h-.486v.786zm0 1.44h.486v-.784h-.486v.784zm.782-2.88v-.43h.78l.001-.993h-.295v.336h-.486v-.336h-.296v.336h-.779v.656h.779v.432h-.779v.317h-.002v4.755h.295v-1.537h.486v1.558h.296v-1.558h.486v1.537h.295l-.001-5.072h-.78zM19.515 11.883L18.873 11.785 18.585 11.172 18.298 11.785 17.657 11.883 18.12 12.359 18.118 12.375 18.01 13.034 18.585 12.715 19.16 13.034 19.051 12.359zM15.798 13.745L15.155 13.647 15.149 13.633 14.87 13.034 14.582 13.647 13.939 13.745 14.402 14.222 14.402 14.235 14.296 14.896 14.87 14.577 15.442 14.896 15.334 14.222zM13.484 17.937L13.939 17.469 13.296 17.37 13.008 16.758 12.721 17.37 12.081 17.469 12.544 17.948 12.433 18.62 13.008 18.303 13.021 18.31 13.583 18.62 13.474 17.948zM13.939 21.194L13.297 21.095 13.008 20.482 12.722 21.095 12.081 21.194 12.544 21.67 12.541 21.684 12.435 22.344 13.008 22.026 13.023 22.032 13.583 22.344 13.473 21.67zM15.344 24.452L15.798 23.985 15.155 23.888 15.149 23.876 14.869 23.275 14.58 23.888 14.566 23.89 13.939 23.985 14.405 24.463 14.293 25.137 14.869 24.817 15.443 25.137 15.333 24.463zM19.515 25.846L18.874 25.75 18.586 25.137 18.299 25.75 18.285 25.751 17.657 25.846 18.121 26.324 18.118 26.339 18.012 26.999 18.586 26.679 19.161 26.999 19.052 26.324z" mask="url(#prefix__b)"/>
        <path fill="#FFF" d="M28.316 21.797l-.694-.366-.692.366.132-.77-.56-.546.775-.113.345-.7.349.7.772.113-.561.546.134.77zm-1.815 3.36l-.694-.365-.692.365.132-.77-.559-.545.774-.113.345-.703.347.703.775.113-.56.544.132.771zm-3.238 2.01l-.693-.366-.692.365.131-.77-.558-.548.77-.11.349-.703.345.702.775.111-.559.547.132.771zm-2.16-8.918v-.867h.057c.004 0 .25-.003.487-.111.274-.123.408-.336.408-.649v-1h.553v1.31c.007.12.009.538-.292.879v4.425h-.552v-4.071c-.177.055-.378.084-.602.084h-.06zm.797-6.76l.346-.703.347.703.774.11-.561.547.133.772-.693-.365-.693.364.133-.771-.56-.547.774-.11zm1.039 10.542h2.732v-.87H22.94v.87zm0-5.178h2.732v-.87H22.94v.87zm2.325-3.476l.346-.701.345.7.775.113-.561.546.133.77-.692-.364-.694.364.133-.77-.562-.546.777-.112zm2.268 2.458l.345.7.775.113-.561.546.13.77-.69-.363-.694.363.133-.77-.56-.546.775-.114.347-.7zm-7.09 16.01c-.136 0-.27-.009-.403-.028-5.768-1.163-10.111-6.25-10.111-12.356l-.059-7.36h.004c.068-1.765 1.255-3.132 3.035-3.132.158 0 .452.008.604.029.354.049.737.096 1.102.096 1.37 0 2.805-.31 3.935-.911.17-.094.34-.189.502-.293.08-.05.16-.103.24-.154.07-.049.138-.096.206-.146h.002c.264-.188.597-.336.946-.336l-.002 24.59zm7.653-23.493c-.171 0-.34.013-.503.037-.368.048-.744.074-1.13.074-1.45 0-2.819-.362-4.015-1-.181-.098-.36-.201-.533-.309-.084-.053-.169-.109-.252-.165-.075-.05-.222-.154-.222-.154-.278-.2-.622-.318-.991-.318-.37 0-.715.117-.993.318l-.22.154c-.083.056-.167.112-.253.165-.173.108-.35.211-.532.308-1.198.64-2.565 1.001-4.015 1.001-.386 0-.766-.026-1.136-.076-.162-.022-.33-.035-.497-.035-1.934 0-3.503 1.567-3.503 3.5v7.193c-.002.135-.007.272-.007.412 0 6.467 4.6 11.857 10.71 13.095.143.02.292.033.442.033.145 0 .287-.011.425-.028 6.089-1.228 10.683-6.581 10.726-13.016V11.852c0-1.933-1.568-3.5-3.501-3.5zM10.5 4.647c.035.009.073.009.108.007 1.037-.132 2.648-1.003 3.298-1.68.012-.012.025-.027.03-.045.018-.06-.03-.122-.104-.136-1.415.002-3.097.717-3.575 1.452-.01.017-.02.033-.025.053-.046.157.074.312.267.35M4.094 10.24c.04 0 .078-.008.113-.02.003-.002.008-.005.012-.005.039-.018.07-.046.102-.077.885-1.305 1.167-2.86 1.255-4.416-.004-.075-.06-.136-.129-.136-.008 0-.014 0-.021.002-.029.005-.053.02-.073.042-.17.2-.36.426-.5.618-.681.935-1.139 1.971-1.136 3.209 0 .171.015.344.054.515.045.155.172.269.323.269M1.234 19.492c.061.036.132.059.212.059.048 0 .09-.005.132-.019.006 0 .008-.003.013-.003.067-.025.126-.063.168-.111.04-.045.065-.098.074-.157.172-1.215-.56-3.652-1.356-4.33-.026-.021-.062-.035-.102-.035l-.025.001c-.032.004-.063.018-.085.038-.013.01-.021.026-.029.04-.352 1.277-.355 2.53.297 3.748.163.305.4.563.7.77M8.35 8.581c.006-.015.013-.029.014-.046v-.007c0-.075-.052-.136-.12-.149-1.514-.024-3.177 1.19-3.581 2.302-.01.035-.017.07-.017.108 0 .035.005.067.014.099.043.164.192.284.369.284.03 0 .056-.003.085-.01 1.083-.293 2.701-1.55 3.237-2.581M6.732 6.5c.035.012.072.019.11.016h.01c.04-.004.08-.017.115-.034 1.16-.878 1.83-2.166 2.323-3.519.014-.07-.02-.141-.082-.165-.008 0-.015-.003-.021-.003-.028-.005-.053 0-.078.014-.21.123-.443.262-.625.389-.873.612-1.57 1.386-1.894 2.483-.046.153-.077.311-.085.476-.001.152.086.293.227.342M11.134 5.754c.007-.01.015-.02.016-.033l.001-.005c.005-.056-.038-.102-.103-.117-1.431-.123-3.108.664-3.586 1.46-.013.024-.023.05-.026.078-.003.025-.002.051.004.075.027.124.158.223.326.236l.08-.002c1.051-.145 2.692-.964 3.288-1.692M3.13 15.827c.036-.002.07-.013.102-.026.94-.53 1.96-2.277 2.337-3.506l.007-.038-.002-.008c0-.015-.001-.03-.004-.04-.015-.062-.058-.1-.11-.106-1.062.031-2.49 1.868-2.67 3.298l-.002.042c.001.034.006.068.014.102.01.03.019.06.032.087.06.12.171.2.296.195M1.386 14.749c.092.093.234.153.397.146.056 0 .108-.01.157-.025l.015-.005c.08-.027.149-.07.196-.125.007-.008.014-.02.024-.028.654-1.06.832-3.178.302-4.373-.026-.059-.096-.1-.18-.098-.009 0-.022 0-.03.003-.038.006-.073.022-.1.043l-.016.019c-.172.226-.329.428-.463.637-.633 1.003-.953 2.05-.633 3.165.067.229.178.444.331.64" mask="url(#prefix__b)"/>
        <path fill="#FFF" d="M1.898 19.316c.026.063.07.117.135.157.074.049.17.078.272.078.052 0 .1-.008.145-.019.004-.003.008-.003.012-.003.041-.015.079-.034.112-.053 1.1-.706 1.966-2.546 2.072-3.522 0-.035-.016-.066-.046-.09-.03-.024-.072-.037-.119-.037v.001c-1.53.36-2.872 2.238-2.583 3.488M1.685 24.806c.13.12.284.215.452.292.056.022.122.039.19.039.056 0 .108-.012.157-.026.072-.022.135-.06.185-.11.023-.022.046-.049.063-.075.017-.029.03-.06.041-.09.01-.033.015-.068.015-.104-.153-1.371-1.495-3.39-2.48-4.212-.028-.018-.06-.034-.097-.038H.173c-.01 0-.02.001-.03.004-.054.012-.096.042-.12.082-.008.011-.014.025-.017.036-.049 1.14.2 2.197.784 3.187.219.373.557.707.895 1.015M10.865 36.176c.06-.022.116-.051.16-.091.026-.023.046-.048.065-.074.04-.056.062-.121.062-.191 0-.105-.054-.2-.138-.27-.02-.016-.04-.029-.061-.042-1.328-.729-3.827-1.153-5.217-1.045-.052.011-.095.035-.125.07-.01.014-.021.033-.027.05-.008.018-.01.037-.008.054.002.016.008.032.014.045.005.01.01.02.017.027.004.008.015.015.022.023.782.605 1.691 1.046 2.717 1.342.66.189 1.34.294 2.043.199.163-.022.322-.054.476-.097M4.255 28.86c.04-.002.08-.007.12-.02.063-.021.12-.057.166-.104.02-.024.04-.046.054-.072.017-.03.03-.058.038-.087.01-.033.013-.068.013-.102l-.001-.038c-.004-.033-.016-.06-.026-.087-.768-1.444-2.023-2.382-3.45-3.196-.017-.007-.033-.015-.052-.017h-.032c-.01 0-.019.002-.029.003-.047.013-.086.04-.108.078-.005.012-.01.024-.013.037-.002.006-.004.013-.004.02-.002.004-.002.01-.002.017v.01c.386 1.3 1.09 2.408 2.3 3.202.304.2.646.315 1.026.357M3.064 24.983c.024.029.056.054.088.077.015.007.03.019.046.027.063.032.14.05.217.05.054 0 .103-.01.152-.026.07-.024.13-.064.181-.116l.006-.005c.771-.977 1.018-3.096.835-4.355-.003-.026-.012-.05-.026-.07-.008-.015-.018-.027-.033-.037-.028-.025-.062-.042-.101-.045l-.036-.001-.032.004c-.018.005-.034.016-.048.026-1.456 1.15-1.82 3.28-1.302 4.397.02.026.033.052.053.074M7.095 32.561c.02-.003.045-.008.066-.014.064-.021.121-.06.167-.106.022-.021.04-.046.054-.071.017-.028.03-.058.038-.087.009-.032.014-.068.014-.103l-.001-.038c-.006-.045-.02-.087-.04-.127-.012-.024-.028-.044-.045-.066-.967-.997-3.171-2.092-4.388-2.157h-.019l-.026.003c-.046.013-.086.042-.107.08-.006.011-.012.023-.015.036 0 .006-.004.012-.004.02l-.001.016v.014c.001.013.005.024.008.033.002.01.006.018.01.026.654 1.126 2.444 2.538 3.855 2.564.143.004.288-.008.434-.023M5.24 28.644c.017.021.031.044.05.061.03.03.062.057.101.078.016.01.033.02.052.027.051.022.106.04.167.047.023.004.05.004.077.004.059 0 .118-.01.172-.026.08-.023.148-.065.204-.115.026-.024.05-.053.07-.082l.01-.024c.112-.233.206-.47.258-.713.211-.964.072-1.924-.16-2.873-.057-.223-.125-.443-.2-.691-.003-.015-.014-.032-.024-.046-.01-.013-.022-.026-.037-.037-.01-.009-.02-.015-.033-.022-.025-.013-.051-.023-.083-.025l-.04-.001-.036.006c-.043.01-.08.032-.106.057l-.038.04c-.852 1.004-1.192 2.121-.888 3.328.09.35.28.683.485 1.007" mask="url(#prefix__b)"/>
        <path fill="#FFF" d="M7.674 32.516c.007.007.016.014.026.018.044.022.091.038.141.045.02.003.043.006.064.006.016 0 .03-.003.047-.003.032-.006.066-.013.098-.024.065-.024.126-.064.172-.118.022-.022.04-.049.058-.077.012-.024.02-.049.03-.073.245-1.17-.387-3.135-1.123-4.286-.01-.01-.015-.019-.025-.028-.007-.007-.018-.014-.028-.02-.02-.013-.045-.024-.069-.025l-.009-.001h-.025c-.01.001-.019.002-.03.005-.043.012-.077.04-.1.075-.716 1.293-.461 3.43.773 4.506M11.311 35.324c.072.032.15.054.235.054h.04c.05-.005.095-.014.141-.03.083-.027.156-.073.216-.134.026-.029.052-.06.072-.093.043-.072.066-.153.066-.24-.16-1.612-1.188-2.844-2.282-4.083-.018-.02-.04-.039-.066-.051-.025-.011-.051-.019-.08-.024h-.045c-.012.003-.024.003-.037.007-.056.012-.104.044-.134.086-.012.017-.02.035-.026.054-.476 1.454.55 3.713 1.9 4.454M15.6 36.721c-.036-.026-.075-.047-.114-.065-1.457-.558-3.883-.394-5.142.141-.034.017-.067.044-.088.078-.012.022-.022.044-.028.07-.003.008-.003.018-.003.025-.002.016-.004.03-.002.046.002.021.005.044.013.062.004.015.01.026.014.036.009.016.02.032.03.044.01.011.023.02.034.027.921.564 1.907.879 2.948.967.677.056 1.34-.003 1.96-.33.143-.075.277-.165.403-.262.017-.015.036-.03.05-.049.025-.03.046-.064.064-.1.038-.078.06-.166.059-.261-.002-.14-.052-.268-.134-.364-.019-.023-.042-.046-.065-.065" mask="url(#prefix__b)"/>
        <path fill="#FFF" d="M24.225 37.034c1.392-.133 2.926-2.582 2.703-4.281v-.008c-.007-.026-.016-.046-.027-.067-.027-.043-.067-.074-.115-.088l-.032-.005h-.037c-.024.003-.047.013-.068.024-.013.006-.024.016-.035.026-1.172 1.142-2.282 2.284-2.575 4.04-.886.252-2.48.728-4.059 1.349-1.577-.621-3.171-1.097-4.058-1.35-.293-1.755-1.402-2.897-2.575-4.04-.01-.009-.022-.019-.036-.025-.02-.011-.042-.021-.066-.024h-.039l-.032.005c-.047.014-.087.045-.114.088-.011.02-.02.041-.027.067l-.001.008c-.222 1.7 1.312 4.148 2.704 4.281.963.217 2.252.698 3.523 1.285-1.38.589-2.657 1.276-3.328 2.006l.5.639c.618-.67 2.018-1.535 3.55-2.298 1.531.763 2.931 1.628 3.55 2.298l.498-.639c-.67-.73-1.947-1.417-3.328-2.006 1.272-.587 2.56-1.068 3.524-1.285M26.98 2.973c.652.678 2.265 1.548 3.3 1.681.036.002.074.002.11-.007.192-.037.312-.192.268-.35-.006-.019-.017-.035-.027-.052-.477-.736-2.16-1.45-3.574-1.452-.077.014-.122.075-.103.136.005.018.015.032.026.044M36.67 10.215c.004 0 .008.003.011.004.036.014.072.022.114.022.152 0 .278-.113.321-.269.04-.17.056-.344.056-.515.001-1.237-.455-2.274-1.135-3.208-.141-.194-.33-.419-.5-.62-.02-.021-.045-.036-.073-.041-.008-.002-.014-.002-.021-.002-.07 0-.126.06-.13.136.09 1.556.372 3.11 1.254 4.416.031.031.065.06.104.077M39.055 19.261c.01.059.036.112.075.157.043.048.1.086.17.111l.01.003c.043.014.087.019.133.019.08 0 .152-.023.213-.059.3-.206.538-.463.701-.769.65-1.218.648-2.47.296-3.748-.008-.014-.017-.029-.03-.04-.022-.02-.052-.034-.083-.038l-.025-.001c-.041 0-.076.014-.103.035-.796.679-1.527 3.115-1.357 4.33M35.86 11.172c.177 0 .324-.12.368-.285.009-.031.015-.064.015-.099 0-.038-.008-.073-.02-.108-.403-1.111-2.064-2.325-3.58-2.3-.067.013-.118.073-.118.148v.008c.001.016.006.031.013.046.535 1.03 2.154 2.287 3.236 2.578.028.008.055.012.086.012M33.922 6.482c.038.017.075.03.116.034h.012c.035.003.073-.004.109-.017.14-.048.226-.19.225-.341-.006-.166-.037-.324-.084-.477-.326-1.096-1.023-1.871-1.896-2.483-.18-.127-.416-.266-.624-.388-.024-.015-.05-.02-.077-.015-.007 0-.015.002-.02.004-.066.023-.1.094-.083.164.492 1.353 1.164 2.641 2.322 3.519M33.124 7.448c.168-.013.298-.112.326-.236.005-.024.005-.05.004-.075-.004-.028-.014-.054-.027-.08-.477-.794-2.157-1.58-3.588-1.458-.064.015-.108.061-.1.117v.005c.003.013.01.024.016.033.596.728 2.236 1.547 3.288 1.692.027 0 .054.003.081.002M35.318 12.209l-.005.039v.01c0 .011.005.024.007.038.378 1.228 1.395 2.975 2.337 3.505.032.014.066.024.104.026.124.005.235-.076.294-.194.014-.027.024-.058.032-.088.009-.034.014-.068.014-.102 0-.014 0-.026-.002-.042-.178-1.43-1.607-3.267-2.67-3.298-.052.006-.095.045-.11.106M38.737 14.74c.05.054.117.098.198.125l.014.005c.05.015.101.025.157.025.162.007.307-.053.396-.146.156-.197.265-.412.331-.641.322-1.114 0-2.161-.632-3.164-.133-.21-.29-.412-.462-.638l-.02-.018c-.024-.021-.058-.037-.098-.044-.008-.003-.02-.003-.028-.003-.085-.002-.158.04-.182.098-.527 1.196-.353 3.313.305 4.373l.02.028" mask="url(#prefix__b)"/>
        <path fill="#FFF" d="M38.44 19.532c.046.012.092.019.145.019.103 0 .199-.029.272-.078.062-.04.11-.094.134-.157.289-1.25-1.053-3.126-2.582-3.488l-.002-.001c-.045 0-.087.013-.117.038-.03.024-.047.055-.047.09.108.975.974 2.815 2.073 3.521.032.02.069.039.112.053.004 0 .006 0 .013.003M40.715 20.482h-.038c-.036.004-.07.02-.096.038-.984.822-2.326 2.841-2.48 4.213 0 .035.005.07.016.104.01.03.022.06.039.09.018.026.041.052.063.074.05.05.115.089.187.11.05.014.101.026.157.026.067 0 .13-.016.19-.038.167-.077.32-.172.452-.292.337-.308.674-.642.894-1.016.584-.99.833-2.047.784-3.187-.003-.012-.008-.025-.017-.037-.024-.04-.065-.07-.12-.081-.01-.003-.02-.004-.03-.004M35.28 34.532c-.03-.035-.073-.059-.125-.068-1.393-.11-3.893.315-5.218 1.044-.022.013-.042.026-.06.043-.087.068-.138.164-.14.269 0 .07.024.135.063.191.018.026.04.05.065.074.045.04.1.069.16.09.154.044.312.076.475.098.705.095 1.384-.01 2.044-.2 1.027-.295 1.936-.737 2.718-1.341l.022-.023.017-.026c.006-.014.012-.03.012-.046.001-.018 0-.037-.004-.054-.008-.017-.018-.037-.03-.051M39.954 25.255c-.003-.013-.008-.024-.015-.037-.022-.038-.06-.065-.106-.077l-.029-.004-.032.001c-.02.002-.035.01-.052.016-1.427.814-2.683 1.752-3.45 3.196-.01.027-.022.055-.026.087l-.001.038c-.002.034.004.07.014.103.007.029.02.058.037.086.015.026.033.048.053.073.047.046.104.082.168.103.037.013.078.018.119.02.38-.04.72-.156 1.027-.356 1.209-.793 1.912-1.901 2.299-3.202v-.01c0-.006 0-.013-.002-.018 0-.006-.002-.012-.004-.019M37.142 24.995c.05.051.111.09.184.116.046.015.096.026.15.026.076 0 .153-.019.215-.051.016-.008.033-.02.047-.027.032-.022.064-.048.09-.077.02-.022.033-.047.05-.073.518-1.117.155-3.246-1.3-4.397-.018-.009-.03-.02-.052-.026-.007-.002-.02-.003-.03-.004l-.036.001c-.039.003-.074.021-.102.045-.013.011-.023.022-.032.037-.013.02-.024.044-.025.07-.185 1.26.064 3.378.835 4.354l.006.006zM38.097 29.91c-.004-.012-.01-.023-.015-.035-.022-.038-.06-.067-.107-.08l-.025-.003h-.019c-1.217.066-3.423 1.16-4.388 2.157-.02.022-.033.042-.046.065-.02.041-.035.083-.04.127l-.002.039c0 .035.007.071.014.103.01.03.023.06.04.087.014.025.032.05.054.07.045.047.102.085.167.107.02.006.043.01.066.014.144.015.289.027.433.023 1.41-.026 3.202-1.439 3.854-2.564.004-.008.01-.016.011-.026.004-.009.006-.02.007-.033v-.013l-.001-.018-.003-.02M34.746 28.614l.012.024c.02.03.042.058.069.082.055.05.125.092.205.115.053.017.112.026.17.026.025 0 .053 0 .077-.004.06-.008.118-.025.166-.047.021-.007.039-.017.054-.027.037-.02.07-.048.101-.078.018-.017.033-.04.048-.061.207-.324.395-.658.484-1.007.306-1.207-.034-2.324-.886-3.328l-.038-.04c-.026-.025-.064-.047-.106-.057-.013-.003-.023-.005-.037-.006l-.04.001c-.03.002-.059.012-.084.026-.011.006-.02.012-.031.021-.015.01-.028.024-.038.037-.011.014-.02.03-.024.046-.075.248-.144.469-.2.691-.23.95-.371 1.91-.16 2.873.053.242.148.48.258.713" mask="url(#prefix__b)"/>
        <path fill="#FFF" d="M33.888 27.935c-.01-.003-.02-.004-.03-.005h-.027l-.007.001c-.025.001-.05.012-.068.024-.013.007-.021.014-.029.021-.01.009-.017.018-.024.028-.737 1.15-1.368 3.115-1.124 4.286.01.024.017.05.03.072.016.03.036.056.057.078.047.054.107.094.173.118.032.01.064.018.099.024.014 0 .03.003.046.003.021 0 .043-.003.062-.006.052-.007.099-.023.143-.045.009-.005.018-.011.026-.018 1.234-1.075 1.49-3.213.773-4.506-.023-.035-.057-.063-.1-.075M31.32 30.73c-.014-.004-.026-.004-.039-.007h-.045c-.027.005-.053.013-.08.025-.026.011-.049.03-.067.05-1.093 1.24-2.12 2.471-2.28 4.083 0 .087.023.168.065.24.02.034.044.064.073.093.06.06.132.107.216.135.045.015.09.024.141.029h.038c.085 0 .164-.022.237-.054 1.35-.741 2.375-3 1.898-4.454-.006-.019-.014-.037-.025-.054-.03-.042-.078-.074-.133-.086M30.661 36.945c-.005-.026-.016-.048-.028-.07-.021-.034-.054-.06-.088-.078-1.26-.535-3.684-.7-5.142-.14-.04.017-.078.038-.113.064-.023.019-.046.042-.065.065-.084.096-.134.224-.134.364 0 .095.02.184.057.262.02.035.04.068.066.1.014.018.031.033.05.048.126.097.26.187.403.262.62.327 1.284.386 1.96.33 1.042-.088 2.026-.403 2.947-.966.012-.009.024-.017.035-.028.012-.012.022-.028.03-.044.006-.01.011-.021.015-.036.007-.018.01-.04.013-.062 0-.016 0-.03-.002-.046 0-.007-.002-.017-.004-.025M22.303 2.323V1.28c-.401-.048-.838-.081-1.334-.098l-.033-.001V0h-.975v1.181h-.033c-.5.018-.938.05-1.342.1v1.042c.4-.05.839-.084 1.34-.102l.035-.002v3.367h.975V2.219l.036.002c.5.019.935.052 1.331.102" mask="url(#prefix__b)"/>
    </g>
</svg>
