<svg xmlns="http://www.w3.org/2000/svg" xmlns:xlink="http://www.w3.org/1999/xlink" width="200" height="48" viewBox="0 0 200 48">
    <defs>
        <path id="prefix__a" d="M0 44L195 44 195 0 0 0z"/>
    </defs>
    <g fill="none" fill-rule="evenodd" transform="translate(3 2)">
        <path fill="#00517D" d="M62.646 16.044c.635 2.62 2.652 5.172 7.238 6.69l-.015.208c-.985.19-1.568.74-1.718 1.879-3.821-1.984-5.189-5.415-5.722-8.312-.601 3.673-2.42 6.414-8.19 8.312l-.135-.259c4.554-2.276 5.888-5.052 6.29-8.518h-5.707l-.133-.5h5.89c.115-1.398.115-2.88.115-4.517h-4.905l-.132-.5h9.926l1.151-1.501s1.3 1.017 2.102 1.725c-.05.19-.25.276-.483.276H62.78c-.035 1.637-.067 3.137-.2 4.517h3.852l1.168-1.518s1.32 1.018 2.103 1.742c-.051.19-.234.276-.484.276h-6.573zM80.607 9.026c5.895.332 4.733 4.508 2.559 3.397-.471-1.192-1.668-2.502-2.679-3.265l.12-.132zM89.11 21.72s1.348 1.011 2.19 1.707c-.05.183-.235.265-.488.265H75.654l-.134-.464h6.753v-5.004H77.49l-.135-.48h4.92V13.5H76.78l-.133-.464h10.645l1.178-1.458s1.314.977 2.123 1.657c-.05.182-.236.265-.489.265h-5.66v4.242h2.292l1.145-1.409s1.28.945 2.054 1.625c-.033.18-.236.265-.455.265h-5.035v5.004h3.47l1.195-1.508zM106.244 12.146c-.262.607-.557 1.18-.854 1.719.313 1.28.731 2.427 1.306 3.456.68-1.586 1.028-3.321 1.167-5.175h-1.62zm-6.565.674h.07c.505-.725.957-1.45 1.376-2.174H99.68v2.174zm10.413-.674c-.296 2.596-.957 4.888-2.281 6.809.975 1.181 2.229 2.14 3.779 2.85l-.054.168c-.957.185-1.533.707-1.775 1.6-1.289-.876-2.245-2.022-2.961-3.387-1.41 1.483-3.377 2.663-6.094 3.473l-.12-.17c2.611-1.315 4.351-2.983 5.483-4.921-.453-1.265-.783-2.663-1.01-4.164-.592.96-1.289 1.804-2.088 2.513l-.226-.136c.503-.978.974-2.174 1.374-3.49-.052.018-.104.018-.174.018h-2.82c-.539.606-1.114 1.196-1.743 1.753h1.272l.923-.927 1.706 1.433c-.14.135-.33.167-.678.202-.558.319-1.237.725-1.916 1.044l.557.05c-.051.254-.208.371-.574.423v.69c1.045-.133 2.176-.286 3.291-.437l.034.236c-.887.337-1.984.724-3.325 1.162v2.512c0 1.331-.295 2.039-2.525 2.242-.052-.59-.138-1.028-.401-1.298-.277-.287-.643-.489-1.48-.624v-.236s1.794.103 2.141.103c.263 0 .35-.068.35-.27v-1.822c-.732.237-1.534.472-2.386.726-.086.201-.278.353-.471.403l-.853-2.039c.785-.067 2.107-.202 3.71-.405v-1.584l1.027.084c.278-.37.557-.809.783-1.179H98.81c-1.166.96-2.474 1.836-3.954 2.528l-.173-.186c.992-.674 1.932-1.482 2.787-2.342h-1.673l-.156-.49h2.282c.52-.556 1.008-1.146 1.46-1.752h-4.387l-.14-.489h2.891v-2.174h-2.054l-.14-.473h2.194V7.897l2.577.203c-.033.253-.173.405-.644.473v1.6h.053l.818-1.078s.488.389.957.809c.331-.624.593-1.231.819-1.804l2.282 1.062c-.106.187-.28.287-.715.22-.61 1.113-1.394 2.292-2.351 3.438h.54l.819-1.045s.766.59 1.34 1.113c.436-1.568.783-3.27.94-4.956l2.803.64c-.053.22-.26.37-.679.387-.242.963-.54 1.854-.87 2.698h2.018l1.081-1.349s1.219.944 1.932 1.568c-.052.185-.225.27-.469.27h-.905z"/>
        <mask id="prefix__b" fill="#fff">
            <use xlink:href="#prefix__a"/>
        </mask>
        <path fill="#00517D" d="M129.265 18.506h1.297V16.08h-1.297v2.425zm0-2.896h1.297v-2.274h-1.297v2.274zm-2.843 2.896h1.163V16.08h-1.163v2.425zm0-2.896h1.163v-2.274h-1.163v2.274zm-4.673 1.533h.848v-1.92h-.848v1.92zm0-2.392h.848v-2.004h-.848v2.004zm-2.379 2.39h.799v-1.92h-.799v1.92zm0-2.39h.799v-2.004h-.799v2.004zm9.895-3.383v1.497h1.131l.797-.909 1.697 1.33c-.1.118-.317.253-.615.302v7.948c0 1.28-.217 1.953-1.863 2.105-.016-.538-.034-1.01-.149-1.263-.118-.285-.3-.471-.699-.556v-.235s.581.033.781.033c.183 0 .217-.084.217-.268v-2.357h-1.297v3.872c0 .22-.714.622-1.347.622h-.333v-4.494h-1.163v4.074c0 .184-.65.572-1.365.572h-.265v-3.52h-2.96v3.082c0 .102-.549.49-1.43.49h-.317V20.12h-2.726l-.134-.47h2.86v-2.02h-.715v.403c0 .15-.68.523-1.347.523h-.248v-6.989l1.678.69h.632v-1.53h-2.71l-.133-.473h2.843V7.897l2.296.203c-.018.219-.151.37-.55.437v1.718h.399l.948-1.263s1.081.858 1.745 1.465c-.048.185-.215.27-.447.27h-2.644v1.532h.631l.715-.758 1.513 1.145c-.082.118-.283.236-.55.286v4.783c-.015.135-.762.504-1.279.504h-.265v-.588h-.765v2.02h.648l.947-1.246s.733.59 1.365 1.127v-7.425l1.713.758h1.08v-1.497h-3.027l-.133-.473h3.16v-2.88l2.344.236c-.05.254-.182.455-.664.522v2.122h1.08l.633-.859c-.067-.589-.483-1.28-.883-1.666l.15-.103c2.562.12 2.478 1.567 1.714 1.92.35.287.747.624 1.047.91-.05.185-.217.27-.448.27h-3.293zM143.116 11.413h6.295L150.52 9.9s1.257 1.058 2.033 1.8c-.05.167-.23.25-.496.25h-8.791l-.15-.537zm8.114 8.51s1.288 1.06 2.065 1.801c-.048.185-.231.27-.495.27h-10.344l-.148-.539h7.782l1.14-1.531zm-7.337-11.135c-.066.218-.281.37-.66.354-.513 1.294-1.092 2.473-1.752 3.516l.76.286c-.05.15-.198.253-.513.32v9.856c-.032.151-.825.572-1.586.572h-.38V14.93c-.646.706-1.338 1.346-2.066 1.883l-.182-.134c1.438-2.086 2.876-5.45 3.604-8.78l2.775.89zM166.402 13.416c.583 3.121 2.516 6.226 7.182 8.134l-.034.184c-1.016.186-1.617.81-1.8 1.958-3.882-2.397-5.13-6.497-5.582-9.872-.5 4.017-2.165 7.46-8.215 9.872l-.15-.253c4.633-2.836 5.933-6.176 6.298-10.023h-6.014l-.134-.49h6.182c.116-1.586.1-3.275.1-5.029l2.8.27c-.05.253-.2.423-.6.49-.033 1.468-.05 2.902-.166 4.269h3.748l1.235-1.537s1.349 1.031 2.18 1.756c-.048.185-.232.27-.481.27h-6.549zM188.331 11.727c-.085.17-.267.202-.536.135-.168.235-.403.454-.653.69.855.772.402 1.747-.451 1.394-.118-.218-.285-.47-.503-.706-.636.404-1.357.74-2.06.959l-.134-.253c.553-.353 1.105-.807 1.574-1.31-.335-.286-.704-.555-1.02-.757l.166-.169c.57.052 1.039.136 1.424.27.268-.32.467-.673.635-.992l1.558.74zm-5.124-1.68s.569.438.988.842c.435-.337.87-.773 1.255-1.228-.267-.201-.552-.386-.804-.538-.099.033-.25.017-.418-.034-.469.153-1.255.32-2.077.439l.035 1.293h.417l.604-.774zm8.34 7.663s1.171.974 1.859 1.63c-.052.185-.218.268-.47.268h-5.961v1.75c0 1.377-.303 2.132-2.562 2.334-.051-.622-.15-1.059-.42-1.378-.267-.301-.652-.52-1.54-.655v-.236s1.893.118 2.261.118c.25 0 .335-.067.335-.285v-1.648h-6.414l-.134-.488h6.548v-1.343l1.49.133c.418-.369.853-.79 1.205-1.158h-5.977l-.15-.486h6.395l1.056-1.01 1.808 1.597c-.15.135-.318.185-.686.202-.737.286-1.708.655-2.664.941-.032.252-.2.37-.551.42v.704h3.516l1.056-1.41zm-11.12-2.924c.15.974-.134 1.747-.887 2.084-1.273.537-2.128-1.075-.722-1.814.47-.236.922-.876.905-1.832l.202-.018c.184.387.316.756.418 1.11h.234l-.166-5.664 1.522.304c.52-.371 1.04-.79 1.325-1.059l1.338 1.024.05-.051c.503.019.939.086 1.29.17.252-.337.451-.69.604-1.009l1.54.79c-.068.152-.234.184-.536.117-.152.202-.352.387-.57.59.837.67.453 1.56-.335 1.293-.133-.185-.334-.404-.552-.606-.553.37-1.172.706-1.758.941l-.034-.049c-.051.133-.2.184-.385.184h-1.708l.05 1.294h.385l.62-.823s.703.588 1.14 1.041c-.051.186-.202.269-.42.269h-1.724l.05 1.243h7.2l.052-1.243h-1.376l-.133-.487h1.54l.051-1.294h-1.391l-.15-.47h1.574l.067-1.312h-1.658l-.134-.487h1.642l.736-.874 1.758 1.345c-.133.135-.267.202-.585.234l-.217 4.42.854-.84 1.74 1.681c-.134.135-.3.168-.635.185-.637.386-1.709.94-2.41 1.26l-.153-.117c.134-.386.335-1.025.485-1.53h-10.733zM24.798 2.346V1.293c-.488-.05-1.016-.082-1.62-.1l-.038-.002V0h-1.186v1.191l-.039.002c-.605.018-1.137.05-1.626.1v1.053c.486-.051 1.016-.083 1.625-.1l.04-.004v3.399h1.186V2.242l.04.004c.607.017 1.137.05 1.618.1M10.48 4.504c.044.01.089.01.134.008 1.256-.162 3.213-1.216 4.003-2.038.013-.015.027-.033.032-.054.02-.074-.032-.147-.125-.164-1.718.001-3.757.868-4.336 1.758-.01.022-.025.043-.032.065-.056.19.09.38.324.425M3.84 11.282c.048 0 .093-.006.137-.02.005-.001.01-.003.013-.006.047-.015.087-.044.124-.072 1.073-1.267 1.415-2.773 1.522-4.28-.006-.075-.073-.135-.157-.135l-.025.003c-.035.003-.065.02-.088.039-.205.194-.436.414-.607.6-.825.907-1.38 1.912-1.377 3.11 0 .17.018.336.068.502.05.15.204.26.39.26M1.495 21.366c.074.041.162.07.257.07.058 0 .111-.008.16-.024.006 0 .01-.003.015-.003.084-.027.155-.075.206-.134.049-.056.078-.12.091-.19.207-1.474-.682-4.426-1.645-5.25-.032-.025-.074-.04-.125-.04h-.03c-.04.006-.075.022-.101.046-.015.012-.025.032-.034.05-.43 1.545-.433 3.065.357 4.541.198.37.486.682.849.934M9.004 9.27c.005-.02.01-.039.013-.058v-.006c0-.095-.048-.162-.11-.18-1.377-.033-2.888 1.44-3.255 2.787-.008.041-.016.085-.016.131 0 .04.004.08.013.119.039.2.175.347.336.347.027 0 .051-.007.076-.016.985-.354 2.456-1.876 2.943-3.124M7.036 6.754c.044.011.09.016.133.015h.014c.05-.002.094-.015.14-.03 1.406-.799 2.22-1.97 2.816-3.2.021-.064-.02-.129-.097-.147-.01-.003-.018-.006-.026-.006-.032-.003-.065 0-.095.014-.254.112-.539.237-.757.353-1.06.556-1.904 1.262-2.298 2.258-.055.14-.093.282-.103.433-.003.137.103.265.273.31M11.256 5.845c.006-.011.012-.026.015-.04v-.007c.006-.067-.034-.123-.091-.142-1.303-.147-2.83.806-3.264 1.767-.01.03-.021.061-.024.095-.004.032-.002.062.004.092.025.149.143.271.296.287.024.002.05-.003.073-.006.957-.173 2.449-1.165 2.99-2.046M3.795 16.923c.045-.002.086-.011.123-.024 1.144-.481 2.381-2.067 2.838-3.188.003-.01.007-.02.007-.033v-.01c-.002-.01-.002-.024-.006-.034-.017-.055-.072-.09-.136-.096-1.286.03-3.02 1.7-3.237 3l-.002.038c.001.03.009.06.017.09.01.03.023.054.039.08.071.11.206.182.357.177M2.531 16.745c.056.113.142.187.24.177.034-.002.066-.012.096-.03l.01-.004c.048-.034.089-.088.118-.152.006-.01.01-.023.013-.037.4-1.282.506-3.848.185-5.297-.015-.071-.059-.12-.11-.12-.006 0-.011.002-.018.005-.023.008-.043.025-.06.055-.004.006-.006.015-.01.02-.104.276-.2.519-.28.772-.385 1.218-.578 2.485-.385 3.833.042.281.108.541.201.778M2.287 22.278c.019.077.056.143.107.192.06.058.137.094.22.094.043 0 .08-.01.116-.024l.013-.005c.033-.015.062-.038.089-.064.888-.855 1.59-3.084 1.677-4.267 0-.041-.015-.078-.038-.106-.025-.029-.059-.047-.095-.047h-.001c-1.237.438-2.324 2.714-2.088 4.227M1.362 26.679c.107.145.23.263.366.353.048.03.1.045.155.045.044 0 .086-.01.125-.029.06-.024.109-.072.151-.13.02-.03.036-.06.05-.094.014-.035.024-.068.033-.108.008-.038.012-.082.012-.127-.123-1.66-1.209-4.11-2.005-5.104-.021-.024-.049-.044-.078-.048l-.03-.001c-.01 0-.016.003-.025.007-.043.013-.077.05-.097.1-.006.01-.01.029-.014.042-.039 1.383.163 2.666.634 3.863.178.455.452.86.723 1.23M12.11 39.325c.06-.027.116-.062.16-.11.027-.026.05-.056.068-.089.04-.068.06-.148.06-.231 0-.128-.054-.243-.139-.325-.018-.02-.039-.036-.061-.052-1.34-.883-3.866-1.397-5.274-1.267-.054.014-.097.044-.126.085-.011.02-.021.04-.028.063-.007.02-.007.042-.007.063.003.02.007.038.014.056.004.013.01.022.017.032.006.01.014.019.023.026.79.733 1.709 1.269 2.745 1.626.668.23 1.355.357 2.066.242.165-.027.328-.066.482-.119M4.034 31.59c.05-.004.098-.011.144-.027.08-.026.146-.068.202-.125.024-.028.048-.056.065-.089.02-.033.035-.067.046-.103.012-.04.018-.082.018-.125l-.002-.045c-.006-.04-.02-.072-.034-.108-.929-1.747-2.45-2.883-4.184-3.868-.019-.011-.039-.019-.061-.022l-.04-.001c-.011 0-.023.004-.034.006-.057.014-.103.047-.131.093-.007.014-.013.028-.018.046 0 .008-.004.014-.004.022l-.001.02v.013c.468 1.574 1.322 2.92 2.787 3.88.372.24.783.382 1.247.433M3.713 26.929c.032.028.067.052.11.075.015.008.035.018.055.026.079.031.166.048.262.047.064 0 .126-.01.184-.024.084-.022.162-.06.222-.111l.006-.008c.936-.945 1.238-3 1.013-4.218-.002-.027-.012-.05-.03-.072-.011-.013-.023-.025-.04-.034-.034-.025-.077-.04-.126-.044-.014-.002-.025-.002-.042-.002l-.036.005c-.023.006-.041.016-.061.025-1.766 1.115-2.207 3.18-1.576 4.264.018.025.036.05.059.07M7.477 36.075c.028-.006.057-.01.08-.018.08-.028.149-.073.203-.128.026-.026.047-.055.068-.089.017-.032.034-.067.044-.103.01-.039.018-.08.018-.126l-.003-.046c-.007-.053-.022-.107-.047-.153-.014-.03-.034-.054-.054-.08-1.173-1.208-3.848-2.537-5.323-2.614H2.44l-.031.005c-.058.014-.104.049-.13.095-.008.015-.014.029-.018.044l-.006.025c-.002.007-.002.012-.002.02v.018c.004.012.006.028.011.04.003.009.009.02.015.03.79 1.363 2.962 3.075 4.673 3.107.173.003.349-.01.524-.027M5.996 31.38c.009.02.018.04.03.058.017.03.038.055.06.078l.033.025c.03.021.064.037.1.044.016.003.032.005.047.005.037-.002.071-.01.105-.024.048-.025.09-.065.123-.115.017-.023.03-.05.043-.076l.007-.025c.066-.225.123-.457.156-.69.128-.936.043-1.866-.097-2.787-.035-.214-.076-.428-.121-.668H6.48c-.003-.016-.008-.033-.014-.046-.006-.014-.014-.026-.023-.037-.006-.008-.013-.016-.02-.02-.015-.012-.031-.021-.05-.025h-.025c-.007 0-.014.003-.021.004-.026.01-.048.032-.066.059l-.02.035c-.518.975-.724 2.06-.54 3.228.054.337.168.664.294.977M9.308 34.909c.01.007.022.013.033.017.05.023.108.039.17.044.025.004.051.004.079.004l.055-.001c.041-.005.08-.012.119-.023.08-.024.153-.062.208-.113.03-.023.052-.049.072-.077.015-.022.026-.048.035-.07.298-1.137-.47-3.04-1.363-4.157-.008-.01-.018-.019-.028-.027l-.034-.02c-.027-.012-.055-.02-.083-.024h-.044c-.011 0-.024.003-.035.005-.052.009-.093.038-.121.071-.87 1.253-.56 3.327.937 4.37M12.902 38.308c.06.033.123.051.192.051.011 0 .02 0 .03-.002.04-.001.08-.012.115-.026.068-.027.128-.072.175-.131.023-.027.042-.058.059-.089.033-.07.053-.15.053-.233-.13-1.563-.96-2.758-1.844-3.959-.015-.02-.033-.038-.055-.05-.02-.01-.041-.019-.063-.023H11.527c-.01.002-.02.002-.03.007-.045.012-.083.041-.108.084-.009.016-.015.035-.022.053-.384 1.408.444 3.599 1.535 4.318M16.705 39.987c-.034-.034-.071-.059-.113-.077-1.473-.679-3.924-.48-5.197.17-.036.022-.068.05-.09.094-.012.025-.022.053-.027.085l-.005.031c-.002.017-.002.036 0 .055.001.026.005.05.012.073.004.018.01.033.014.047.009.018.02.035.032.05.011.013.022.023.035.033.93.683 1.925 1.067 2.979 1.172.685.07 1.354 0 1.981-.4.143-.09.28-.198.408-.316.017-.021.035-.037.05-.06.025-.036.046-.08.066-.121.036-.092.059-.202.057-.314 0-.172-.052-.328-.134-.443-.02-.028-.043-.057-.068-.08" mask="url(#prefix__b)"/>
        <path fill="#00517D" d="M27.349 40.896c1.576-.143 3.31-2.779 3.06-4.613l-.001-.01c-.006-.024-.017-.049-.03-.07-.03-.047-.076-.08-.13-.094-.012-.004-.023-.004-.035-.006h-.045c-.027.004-.052.012-.076.025-.014.007-.028.016-.04.028-1.325 1.232-2.581 2.463-2.915 4.355-1.003.267-2.806.784-4.594 1.452-1.788-.668-3.59-1.185-4.593-1.452-.334-1.892-1.59-3.123-2.916-4.355-.012-.012-.026-.021-.04-.028-.023-.013-.049-.021-.076-.025h-.044c-.012.002-.024.002-.034.006-.055.014-.101.047-.131.094-.013.021-.024.046-.03.07l-.001.01c-.252 1.834 1.483 4.47 3.06 4.613 1.09.235 2.55.75 3.99 1.385-1.563.633-3.01 1.377-3.77 2.16l.567.687c.701-.72 2.285-1.653 4.018-2.472 1.733.819 3.318 1.752 4.019 2.472l.564-.687c-.758-.783-2.205-1.527-3.766-2.16 1.44-.635 2.898-1.15 3.989-1.385M29.345 2.474c.788.822 2.744 1.876 4 2.038.045.002.09.001.134-.008.235-.046.38-.235.324-.425-.005-.022-.022-.043-.032-.065-.579-.89-2.617-1.757-4.336-1.758-.09.017-.145.09-.124.164.006.02.02.039.034.054M39.971 11.256l.013.007c.041.013.088.02.136.02.185 0 .34-.109.39-.26.05-.166.068-.333.068-.5.002-1.2-.554-2.205-1.377-3.111-.17-.187-.402-.406-.607-.6-.024-.02-.054-.036-.087-.04-.009-.001-.017-.003-.026-.003-.086 0-.151.06-.157.135.106 1.507.449 3.013 1.52 4.28.04.028.078.057.127.072M42.863 21.085c.01.07.04.134.089.19.053.06.122.107.206.134.005 0 .01.003.013.003.053.016.104.024.161.024.096 0 .183-.029.258-.07.364-.252.652-.563.85-.933.79-1.477.788-2.997.359-4.542-.009-.018-.02-.038-.036-.05-.026-.024-.062-.04-.101-.045l-.03-.001c-.05 0-.091.015-.125.04-.965.824-1.851 3.776-1.644 5.25M39.101 12.41c.162 0 .298-.147.337-.347.01-.039.013-.078.013-.119 0-.046-.006-.09-.015-.13-.368-1.348-1.88-2.82-3.258-2.788-.061.018-.109.085-.109.18v.006c.001.02.007.038.011.058.487 1.248 1.96 2.77 2.946 3.123.025.01.05.017.075.017M37.764 6.738c.044.015.09.028.137.031h.016c.043.001.088-.004.132-.016.17-.044.276-.172.275-.309-.01-.15-.048-.293-.103-.433-.394-.997-1.24-1.702-2.298-2.258-.218-.117-.505-.241-.759-.353-.028-.015-.06-.017-.093-.015-.007 0-.017.003-.025.007-.077.019-.119.084-.099.146.596 1.23 1.41 2.403 2.817 3.2M35.767 7.897c.154-.016.271-.138.296-.287.006-.03.008-.06.005-.092-.004-.034-.013-.065-.023-.095-.436-.961-1.96-1.914-3.264-1.767-.057.02-.098.075-.093.142 0 0 .002.002.002.007.003.014.01.029.014.04.542.88 2.035 1.873 2.99 2.046.025.003.05.008.073.006M38.33 13.634c-.004.01-.005.023-.005.034l-.001.01c.001.013.004.024.007.034.457 1.12 1.693 2.706 2.837 3.187.039.013.077.022.124.024.15.005.285-.068.358-.177.016-.026.028-.05.039-.08.01-.03.014-.06.016-.09.001-.013-.002-.026-.004-.038-.215-1.3-1.948-2.97-3.235-3-.064.006-.12.041-.136.096M42.091 16.736c.03.063.072.118.12.152.003 0 .006.002.009.004.03.017.062.028.095.03.098.01.186-.064.24-.177.095-.237.16-.498.201-.778.194-1.349 0-2.615-.383-3.833-.082-.253-.177-.497-.282-.771l-.01-.022c-.015-.029-.036-.046-.06-.054-.005-.003-.012-.005-.017-.005-.052 0-.095.049-.11.12-.321 1.448-.214 4.015.184 5.297.005.014.008.026.013.037M41.228 22.54c.036.014.075.024.117.024.082 0 .16-.036.22-.094.051-.049.087-.115.108-.192.234-1.513-.851-3.79-2.087-4.227h-.003c-.036 0-.07.017-.094.046-.023.029-.037.065-.038.106.087 1.184.789 3.413 1.676 4.27.027.024.057.048.089.062l.012.005M43.819 21.436c-.012 0-.02 0-.03.002-.03.004-.057.023-.08.048-.795.993-1.88 3.442-2.004 5.103 0 .045.004.088.012.126.009.04.02.073.033.11.014.033.032.063.05.092.043.059.094.106.151.13.04.02.082.03.125.03.056 0 .11-.016.156-.045.135-.091.259-.208.364-.354.274-.37.546-.775.725-1.23.47-1.198.673-2.48.634-3.862-.004-.014-.01-.032-.015-.043-.02-.05-.053-.087-.095-.1l-.026-.007M38.288 37.336c-.028-.042-.071-.071-.125-.085-1.407-.13-3.934.384-5.274 1.267-.023.015-.042.032-.06.052-.088.081-.141.197-.141.325 0 .083.021.163.062.231.017.033.04.063.066.09.045.047.1.082.162.11.155.053.316.091.48.118.713.115 1.4-.011 2.067-.242 1.036-.358 1.954-.893 2.746-1.625.008-.009.017-.017.022-.027.007-.01.013-.02.017-.033.006-.018.012-.036.014-.055 0-.022 0-.044-.007-.064-.007-.022-.015-.043-.029-.062M43.954 27.222c-.005-.018-.012-.032-.018-.046-.028-.046-.074-.079-.131-.093l-.034-.006h-.04c-.023.004-.041.012-.061.022-1.733.986-3.254 2.122-4.184 3.869-.015.035-.028.067-.033.107l-.002.046c-.001.043.005.085.016.124.012.036.027.07.046.103.019.034.042.062.065.09.057.056.125.1.203.125.045.016.095.023.145.027.463-.051.875-.192 1.246-.434 1.465-.96 2.318-2.305 2.788-3.88v-.012c0-.007 0-.013-.002-.02 0-.008-.004-.014-.004-.022" mask="url(#prefix__b)"/>
        <path fill="#00517D" d="M40.54 26.94c.06.052.137.09.224.112.056.015.118.025.182.025.096.001.185-.017.262-.048l.058-.025c.04-.023.074-.047.107-.076.023-.02.041-.046.06-.07.63-1.084.191-3.149-1.577-4.264-.018-.01-.038-.02-.06-.025l-.037-.005c-.017 0-.029 0-.042.002-.05.003-.092.018-.126.044-.017.009-.029.02-.04.033-.018.023-.028.046-.03.073-.223 1.218.077 3.273 1.012 4.217l.007.008M41.7 32.863l-.018-.045c-.028-.045-.074-.08-.131-.095l-.031-.005h-.022c-1.476.078-4.15 1.405-5.325 2.614-.02.026-.04.05-.053.08-.024.046-.04.1-.047.153-.002.015-.004.03-.004.046 0 .045.008.086.019.126.01.035.026.07.044.103.02.034.04.063.067.089.055.055.124.1.203.127.026.01.053.013.08.019.176.018.352.03.525.027 1.711-.032 3.886-1.743 4.675-3.108.005-.008.012-.02.015-.029.004-.012.005-.027.008-.04v-.018-.02c-.003-.007-.004-.016-.004-.024M38.542 31.35l.008.025c.012.025.027.053.042.076.034.05.076.09.124.115.033.013.068.022.104.024.015 0 .032-.002.048-.005.035-.007.07-.023.1-.044l.032-.025c.024-.023.043-.049.06-.078.012-.017.022-.038.03-.058.126-.313.24-.64.294-.977.185-1.168-.021-2.253-.539-3.228l-.02-.035c-.017-.027-.04-.05-.066-.06l-.022-.003h-.024c-.019.004-.036.013-.05.025-.008.005-.015.012-.02.02-.01.01-.017.023-.023.037-.006.013-.011.03-.015.046-.045.24-.086.454-.12.668-.142.92-.227 1.852-.098 2.786.032.234.089.466.155.69M36.595 30.468c-.012-.002-.023-.006-.036-.006h-.042c-.029.006-.058.012-.084.024l-.034.02c-.01.008-.019.017-.026.028-.896 1.116-1.662 3.02-1.366 4.155.011.023.021.049.037.07.02.028.041.055.071.078.055.05.127.09.209.112.038.012.076.019.117.024l.057.001c.027 0 .054 0 .079-.004.06-.005.117-.022.17-.044.01-.005.022-.01.032-.017 1.497-1.043 1.806-3.118.937-4.37-.026-.034-.07-.062-.12-.071M33.59 33.853c-.01-.005-.019-.005-.03-.007h-.038c-.02.004-.042.013-.063.023-.021.012-.039.03-.054.05-.884 1.2-1.713 2.396-1.844 3.96 0 .082.02.163.055.232.015.03.035.062.057.089.047.06.106.104.174.13.036.015.076.026.114.027.012.002.02.002.03.002.07 0 .135-.018.194-.051 1.091-.72 1.918-2.91 1.535-4.318-.005-.02-.012-.037-.021-.054-.027-.042-.065-.071-.109-.083M33.81 40.258c-.006-.03-.016-.06-.029-.084-.02-.044-.053-.072-.09-.095-1.27-.65-3.723-.847-5.197-.17-.041.02-.08.044-.113.077-.025.023-.047.052-.067.08-.082.115-.135.271-.135.443-.001.113.021.222.059.314.018.042.04.084.064.12.016.024.034.04.051.06.128.119.265.228.407.318.628.399 1.299.469 1.982.399 1.055-.105 2.05-.488 2.981-1.173.01-.008.023-.02.034-.033.01-.014.022-.032.03-.05.006-.012.01-.029.016-.046.007-.022.01-.048.012-.074v-.054l-.005-.032M24.796 18.051h-.354v.981c0 .352-.119.591-.358.732-.2.115-.407.12-.411.12v.225l-.002.23h.002v.328c.203 0 .382-.036.534-.113v4.267h.353v-4.57c.001-.006.002-.007.003-.007.248-.355.238-.799.233-.888V18.05z" mask="url(#prefix__b)"/>
        <path fill="#00517D" d="M24.798 19.178L28.179 19.178 28.179 18.053 24.798 18.053zM24.798 24.819L28.179 24.819 28.179 23.694 24.798 23.694zM17.131 22.555L17.812 22.555 17.812 21.445 17.131 21.445zM17.131 20.299L17.812 20.299 17.812 19.189 17.131 19.189zM20.518 22.555L21.187 22.555 21.187 21.445 20.518 21.445zM19.392 20.299L20.059 20.299 20.059 19.189 19.392 19.189zM18.263 22.555L18.933 22.555 18.933 21.445 18.263 21.445z" mask="url(#prefix__b)"/>
        <path fill="#00517D" d="M34.069 21.905c0 6.51-4.76 11.934-11.08 13.175-.145.02-.293.032-.442.032l-.004-26.224c.383 0 .749.158 1.037.36h.003c.074.053.148.103.228.153.085.055.172.112.26.166.179.11.362.213.55.312 1.238.64 2.81.97 4.314.97.4 0 .818-.05 1.207-.1.163-.024.489-.032.66-.032 1.952 0 3.252 1.458 3.326 3.339h.002l-.061 7.849zm-12.843 8.33l-.694-.355-.693.355.131-.742.002-.007-.56-.532.766-.108.007-.002.347-.682.345.675.002.007.774.11-.554.525-.007.007.134.75zM19.154 18.92h-.874v.427h.874v3.862h-.874v.43h.874v.752h-.874v.506h-.375v-.506h-.885v-.752h.885v-.43h-.885v-3.862h.885v-.427h-.885v-.75h.885v-.362h.375v.362h.874v.75zm-1.56 9.245l-.687-.352-.007-.002-.694.354.133-.744.002-.009-.564-.53.768-.109h.008l.347-.683.344.676.002.007.776.108-.553.528-.007.003.132.753zm-2.923-3.849l-.006-.005-.694.355.13-.741.001-.008-.557-.53.764-.108.008-.002.348-.683.345.676.003.007.773.11-.555.525-.006.005.134.75-.688-.35zm-.464-5.206l.007-.002.348-.682.342.677.003.005.776.112-.555.525-.005.006.132.75-.687-.35-.006-.005-.693.355.131-.744.002-.006-.56-.53.765-.111zm2.132-3.6l.007-.002.349-.68.34.674.004.006.775.11-.555.526-.006.006.133.752-.691-.356-.695.356.131-.746v-.006l-.56-.533.768-.107zm3.58-2.18h.006l.347-.685.345.677.002.007.774.108-.554.527-.005.004.133.75-.695-.354-.69.353.128-.742v-.007l-.558-.531.767-.108zm1.706 4.478l-.001 1.112h-.87v.427h.87l.001 5.524h-.37v-1.662h-.502v1.688h-.375v-1.688h-.499v1.662h-.373l.002-5.524h.87v-.427h-.87v-.75h.87v-.362h.375v.362h.501v-.362h.371zm9.422-7.924c-.188 0-.376.013-.558.039-.409.053-.829.08-1.256.08-1.612 0-3.133-.39-4.465-1.08-.202-.107-.4-.218-.592-.336-.094-.055-.19-.12-.28-.176l-.246-.17c-.312-.216-.693-.344-1.103-.344-.41 0-.794.128-1.104.344l-.243.17c-.095.057-.187.12-.283.176-.191.118-.389.23-.59.336-1.332.69-2.855 1.08-4.466 1.08-.428 0-.85-.027-1.263-.082-.182-.024-.364-.037-.552-.037-2.15 0-3.893 1.694-3.893 3.786v7.782c-.005.148-.008.297-.008.446 0 6.998 5.112 12.83 11.905 14.17.16.02.326.035.493.035.161 0 .317-.012.472-.032 6.77-1.326 11.878-7.12 11.926-14.083l.001-.046V13.67c0-2.092-1.743-3.786-3.895-3.786z" mask="url(#prefix__b)"/>
        <path fill="#00517D" d="M19.392 22.555L20.059 22.555 20.059 21.445 19.392 21.445zM20.518 20.299L21.187 20.299 21.187 19.189 20.518 19.189zM18.263 20.299L18.933 20.299 18.933 19.189 18.263 19.189zM25.925 13.27L25.147 13.151 25.139 13.136 24.798 12.41 24.447 13.151 23.671 13.27 24.234 13.849 24.1 14.667 24.798 14.277 25.496 14.665 25.361 13.849zM28.755 14.968L29.306 14.401 28.529 14.283 28.181 13.538 27.831 14.283 27.052 14.401 27.616 14.982 27.612 14.998 27.485 15.795 28.181 15.41 28.875 15.795 28.742 14.982zM31.01 19.476L31.561 18.911 30.781 18.791 30.773 18.777 30.434 18.051 30.085 18.791 29.306 18.911 29.87 19.492 29.737 20.308 30.434 19.919 31.128 20.308 30.997 19.49zM31.561 22.298L30.782 22.179 30.775 22.163 30.434 21.436 30.083 22.179 29.306 22.298 29.869 22.878 29.735 23.692 30.434 23.305 31.131 23.692 30.995 22.878zM29.306 26.812L28.527 26.693 28.52 26.676 28.18 25.949 27.829 26.693 27.052 26.812 27.615 27.389 27.481 28.205 28.18 27.818 28.878 28.205 28.743 27.389zM25.374 29.633L25.925 29.065 25.145 28.95 24.799 28.205 24.448 28.95 24.431 28.95 23.671 29.065 24.233 29.645 24.231 29.664 24.101 30.462 24.799 30.075 25.496 30.462 25.363 29.645zM93.32 29.656l.016.028h.184l.003-.051.032-1.092-.038-.013c-.23-.073-.441-.129-.627-.17-.187-.046-.354-.074-.5-.101-.152-.02-.288-.037-.414-.044-.127-.004-.251-.008-.37-.008-.115 0-.273.008-.471.018-.201.01-.426.05-.674.112-.25.064-.507.163-.779.3-.275.142-.538.336-.785.58-.223.225-.4.456-.534.691-.128.233-.223.46-.294.686-.064.215-.107.42-.124.61-.017.187-.026.334-.026.45 0 .341.043.672.131.99.085.31.213.6.382.866v-.002c.165.269.372.506.612.71.243.204.517.372.824.495.155.071.31.122.463.153.153.033.29.056.42.075.13.016.244.027.348.03.098.005.177.005.234.005.242 0 .512-.019.811-.057.3-.034.568-.089.802-.157h.002l.286-.09c.094-.028.19-.06.286-.098l.035-.01-.035-1.102h-.19l-.012.035c-.015.047-.04.105-.067.176-.025.064-.073.141-.152.234l-.138.131c-.052.048-.127.097-.218.14h-.002.002c-.118.056-.238.102-.37.134-.125.032-.249.058-.362.076-.117.02-.214.028-.301.032l-.181.002c-.096 0-.221-.006-.378-.014-.156-.014-.323-.05-.506-.107-.186-.06-.374-.146-.571-.263-.19-.121-.38-.287-.566-.499v-.004.004c-.068-.078-.15-.18-.229-.305-.081-.12-.156-.264-.225-.43-.068-.166-.128-.355-.176-.568-.046-.214-.069-.455-.069-.72 0-.29.028-.545.087-.77.06-.23.128-.429.214-.6.082-.165.171-.311.267-.425.099-.122.19-.223.273-.292.183-.166.371-.293.566-.386.195-.095.379-.161.555-.2.177-.04.332-.065.473-.077.145-.008.26-.012.335-.012.223 0 .463.024.72.074.25.048.466.148.645.293.116.102.194.203.25.299.057.105.1.186.126.238M95.498 31.36l.777-1.713.736 1.713h-1.513zm-.487 2.344v-.041l-.04-.005c-.055-.009-.11-.027-.16-.051l-.111-.11-.035-.084-.006-.053c-.001-.044.015-.107.045-.185l.117-.291.458-1.054h1.93l.422 1.017c.028.07.053.136.084.196.03.06.054.122.08.189.014.057.021.1.021.124v.047l-.034.077c-.032.066-.072.1-.125.127-.064.02-.128.042-.196.05l-.04.006-.011.13-.003.053h1.784v-.155l-.032-.016c-.057-.024-.127-.056-.212-.104-.074-.036-.154-.117-.234-.248l-.053-.103-.06-.131-.06-.133-.052-.11-1.992-4.64h-.135L94.201 33c-.054.121-.102.22-.147.302h.002c-.044.076-.088.14-.133.186l-.146.118c-.049.02-.11.042-.181.05l-.041.006v.184h1.456v-.143zM101.457 33.382c-.042.07-.094.128-.159.17l-.19.076-.123.026-.042.009-.013.13-.004.053h2.166v-.184l-.046-.008c-.12-.024-.21-.05-.26-.08l-.152-.092-.101-.132-.039-.149c-.003-.06-.007-.126-.007-.207V28.697h1.415c.21 0 .371.025.487.068.099.043.179.142.213.333l.008.04h.217v-.933H99.19v.95H99.41l.009-.04.033-.148c.012-.055.053-.114.126-.164.06-.044.138-.071.227-.087.091-.019.228-.029.406-.034h1.304v4.361c0 .152-.024.267-.059.339M106.587 33.702v-.041l-.115-.016-.108-.041-.117-.076-.093-.123c-.023-.055-.035-.123-.039-.21-.002-.091-.006-.211-.006-.366v-1.732h3.058v1.72c0 .128-.002.245-.007.343-.003.096-.012.166-.016.206l-.032.077-.033.049-.14.112c-.061.021-.124.043-.189.05l-.04.007-.012.131-.004.054h1.768v-.184l-.037-.008c-.072-.013-.133-.031-.185-.056l-.147-.108-.085-.157c-.013-.057-.022-.112-.027-.185l-.008-.164v-3.78c0-.063 0-.16.005-.274.002-.117.014-.207.033-.258l.082-.131.12-.087.118-.044.078-.02.042-.007v-.178h-1.753v.182l.114.014.12.034.12.073.084.13c.018.05.031.115.031.2v1.775h-3.058V29.17c0-.136.006-.253.011-.349.01-.09.029-.16.05-.203l.085-.112.112-.063.105-.032.075-.02.04-.009v-.176h-1.76V28.383l.123.027.115.035.114.075.087.13c.023.07.037.137.04.202v.087c0 .063 0 .141-.005.24v3.65c0 .129 0 .24-.002.338-.003.1-.012.166-.025.203l-.084.138-.123.09-.117.04-.08.016-.043.009v.183h1.76v-.144zM117.247 32.827c-.09.246-.204.466-.343.661-.144.197-.307.365-.499.51-.19.145-.402.25-.63.325-.232.08-.475.114-.737.114-.307 0-.574-.045-.81-.134-.234-.091-.434-.194-.6-.323h-.004c-.163-.127-.301-.252-.409-.39-.106-.134-.19-.256-.248-.346-.11-.177-.197-.345-.26-.515-.066-.17-.113-.327-.14-.474v-.002c-.028-.15-.046-.287-.059-.401-.008-.123-.01-.224-.01-.309 0-.31.03-.58.089-.825.062-.242.14-.458.23-.639l.003-.004c.094-.181.193-.333.306-.462.11-.126.221-.233.316-.311.145-.116.293-.21.443-.28.155-.073.301-.121.438-.156.133-.036.257-.057.365-.065.11-.01.198-.016.26-.016.25 0 .472.032.664.087.195.06.365.13.51.214.149.08.275.168.375.255v.004c.1.093.18.175.241.252.079.097.162.222.254.368.088.143.167.316.242.518.069.202.126.427.16.679.022.154.033.315.033.486 0 .118-.005.237-.016.358-.004.07-.017.18-.038.322-.023.15-.064.315-.126.499m.286 1.062c.195-.215.345-.433.457-.657.109-.215.19-.43.248-.629.053-.199.085-.376.098-.544.013-.163.017-.294.017-.407 0-.311-.032-.599-.095-.86-.06-.258-.138-.485-.227-.684-.091-.2-.187-.371-.29-.519-.103-.142-.193-.255-.28-.352-.083-.09-.197-.196-.338-.314-.14-.122-.313-.235-.512-.342-.201-.102-.435-.199-.695-.27-.262-.07-.555-.106-.878-.106-.375 0-.713.047-1.01.136-.3.1-.558.207-.78.338-.223.13-.41.269-.567.417-.148.146-.27.275-.361.387-.068.084-.142.19-.225.317-.082.132-.164.287-.24.464-.076.18-.137.381-.192.611-.048.232-.073.49-.073.765 0 .352.04.664.115.945.078.278.177.521.293.74.118.208.24.394.377.536.132.147.247.262.352.352v.002c.324.267.672.467 1.051.585.374.117.769.174 1.182.174.52 0 .988-.08 1.416-.242.423-.163.808-.443 1.157-.843M119.751 28.454l.14.091c.043.032.078.083.103.144.02.05.033.13.04.231.005.109.009.232.009.372v3.283c0 .14-.002.272-.005.406-.002.13-.006.211-.012.248-.016.092-.044.158-.08.202l-.13.124-.151.07-.13.03-.04.009v.182h4.493v-.972h-.198l-.008.041c-.032.083-.058.151-.082.201l-.082.111-.15.086-.18.04c-.065.007-.13.013-.194.013-.064.003-.126.005-.184.005h-1.197c-.15-.005-.263-.01-.342-.01-.072-.007-.136-.022-.205-.053-.106-.052-.16-.12-.183-.218-.02-.105-.038-.26-.04-.457v-3.35c.002-.136.01-.254.014-.367.008-.106.016-.185.025-.229.023-.065.052-.11.09-.142l.132-.092.129-.044.097-.02.043-.006v-.178h-1.993V28.382l.13.027.141.045zM125.952 33.587l-.198-.117-.094-.154-.013-.125v-.006c-.012-.061-.018-.119-.018-.181v-3.8c0-.127.002-.237.005-.328.001-.092.013-.158.03-.204.023-.064.058-.11.096-.14l.138-.085.144-.038.102-.02.053-.007v-.177h-2.209V28.383l.167.026.158.04.157.086c.046.034.09.086.118.154.025.056.04.121.044.198.002.074.002.183.002.317v3.593l-.012.424c-.006.092-.035.17-.094.232v-.002c-.063.07-.128.114-.2.14-.086.03-.176.047-.27.064l-.048.009v.182h2.233v-.178l-.04-.013c-.088-.02-.17-.04-.25-.068M127.88 33.508v-.002c.169.269.374.506.613.71.245.204.52.371.822.495.158.071.313.122.466.153.152.033.291.056.419.075.131.016.246.027.349.03.097.005.177.005.233.005.242 0 .513-.019.81-.058.3-.033.57-.088.804-.156l.288-.09c.094-.028.187-.06.288-.098l.034-.01-.035-1.103h-.19l-.016.035c-.016.048-.037.105-.064.177-.027.064-.076.141-.153.234l-.136.131c-.055.048-.13.097-.223.14-.114.056-.238.102-.36.134-.132.032-.256.057-.368.076-.115.019-.214.028-.3.032l-.183.002c-.094 0-.22-.006-.38-.015-.153-.013-.323-.048-.507-.106-.182-.06-.369-.146-.566-.263-.192-.121-.381-.288-.569-.499v-.005.005c-.07-.08-.148-.18-.23-.305-.078-.12-.153-.264-.222-.431-.071-.165-.128-.354-.177-.567-.045-.214-.07-.455-.07-.72 0-.29.027-.545.09-.77.058-.23.128-.429.21-.601.085-.164.173-.31.271-.424.098-.123.188-.223.27-.292.186-.166.373-.293.568-.386.194-.096.381-.161.552-.2.179-.04.338-.065.481-.077.14-.008.252-.012.33-.012.225 0 .465.024.717.074.253.048.468.148.648.293.114.102.199.203.25.298.057.106.096.187.126.24l.015.027h.186l.001-.052.034-1.091-.04-.013c-.233-.073-.442-.13-.626-.17-.185-.046-.355-.074-.504-.101-.148-.02-.286-.037-.411-.045-.125-.003-.252-.007-.371-.007-.114 0-.272.007-.47.018-.204.01-.43.05-.675.112-.243.063-.507.163-.778.3-.276.142-.536.336-.784.58-.225.225-.401.455-.533.691-.128.233-.229.46-.291.686-.07.215-.112.42-.13.61-.016.187-.023.334-.023.45 0 .341.04.672.129.99.086.31.213.6.381.866M141.461 34.414L141.458 34.409 141.458 34.407z" mask="url(#prefix__b)"/>
        <path fill="#00517D" d="M143.909 28.366v.047l.091.021.097.027.111.056.09.084c.059.082.093.192.096.334v3.317c0 .159 0 .296-.006.412-.012.12-.021.227-.036.32-.01.095-.029.174-.051.246-.021.078-.045.152-.07.232-.036.096-.076.175-.115.247h-.002c-.036.07-.066.115-.087.142-.043.059-.102.12-.175.189-.075.063-.165.121-.267.17-.105.058-.228.105-.367.141h.002c-.138.04-.292.062-.467.062-.26 0-.508-.056-.752-.163v.003c-.241-.103-.443-.278-.608-.518-.08-.121-.141-.243-.186-.359-.045-.122-.077-.247-.1-.374-.02-.133-.033-.262-.04-.392-.005-.133-.007-.274-.007-.422v-2.901c.007-.129.01-.243.014-.342.002-.093.015-.172.04-.239l.121-.164c.056-.042.148-.086.275-.12l.034-.009.012-.141.002-.067h-1.79V28.412l.037.01c.153.044.256.098.293.138l.005.002.002.006c.072.062.11.132.119.236.01.113.016.271.016.474v2.958l-.001.18c0 .22.008.405.024.555.023.176.055.343.101.495.054.175.135.353.247.533.105.183.253.34.432.485v.002c.18.148.404.264.663.357.263.089.571.131.933.131.367 0 .678-.051.94-.153.258-.096.473-.225.644-.383.171-.157.302-.332.398-.526.094-.189.161-.377.206-.56.027-.12.05-.238.063-.362.014-.12.022-.239.027-.34 0-.102.003-.196.003-.274V29.25c0-.165.002-.296.008-.38v-.002c.004-.075.023-.148.066-.214v-.002c.044-.08.094-.124.153-.15h-.002c.07-.03.144-.057.224-.08l.036-.01V28.205h-1.496v.16zM151.596 28.367v.05l.045.007c.22.044.35.12.404.2.058.087.095.19.105.296v.004l.013.157v.043l-.004.136v3.832l-4.218-4.887h-1.389v.215l.052.005c.085.011.167.03.246.057.065.023.122.072.164.154h.002c.036.06.06.13.06.212.001.089.005.214.005.364v4.653c0 .087-.005.193-.013.32-.012.116-.043.206-.094.267h-.002c-.061.086-.129.134-.202.153-.09.022-.152.034-.178.04l-.046.01-.01.154-.004.063h1.696V34.656l-.046-.01c-.134-.03-.238-.077-.318-.132-.072-.057-.125-.15-.155-.297l-.013-.14c-.002-.049-.002-.117-.002-.212v-4.538l4.877 5.647h.165v-5.737c.002-.131.01-.266.016-.389.009-.11.054-.202.16-.289l.123-.074c.045-.023.114-.044.201-.061l.04-.008.003-.045.008-.099.008-.067h-1.699v.162zM156.379 33.587l-.198-.117-.09-.154-.015-.125v-.006c-.014-.061-.018-.119-.018-.181v-3.8c0-.127 0-.237.003-.328.001-.092.015-.158.032-.204.022-.064.057-.11.096-.14l.14-.085.141-.038.107-.02.05-.007v-.177h-2.205V28.383l.165.026.158.04.158.086c.048.034.09.086.12.154.022.056.036.121.036.198.008.074.008.183.008.317v3.593c-.008.18-.01.32-.014.424-.004.092-.036.17-.093.232v-.002c-.06.07-.13.114-.204.14-.083.03-.17.047-.264.064l-.049.009v.182h2.233v-.178l-.046-.013c-.083-.02-.168-.04-.251-.068M160.85 28.34v.04l.201.052.125.1.028.071.001.052-.017.156-.045.147-.051.12-.026.056-1.463 3.29-1.388-3.288-.064-.152-.047-.155c-.019-.071-.031-.134-.031-.18 0-.07.025-.12.07-.161.041-.037.135-.076.278-.1l.044-.006v-.177h-1.789V28.38l.04.008c.064.014.115.032.155.043l.134.093c.069.058.116.121.147.19.035.074.057.121.067.15.04.079.073.155.11.231.03.079.066.158.095.238l.002.004 1.946 4.51H159.514l2.057-4.577c.04-.093.09-.2.142-.323.052-.12.105-.223.16-.308.056-.084.112-.141.165-.17.054-.037.131-.062.232-.081l.042-.006v-.177h-1.461v.135zM167.743 32.87l-.016.035c-.022.067-.044.129-.071.189l-.109.15-.002.002c-.058.05-.12.078-.192.087-.08.01-.14.014-.162.011h-.005l-.187.019h-1.023c-.222-.009-.414-.012-.582-.02-.16-.009-.269-.033-.325-.071l-.061-.056-.034-.043c-.043-.085-.07-.175-.07-.27-.003-.109-.01-.205-.014-.292v-1.537h1.329c.135 0 .265.008.4.028.118.019.205.073.277.184l.041.079v.001c.012.029.026.073.048.134l.008.039h.211v-1.423H166.992l-.034.115-.044.118-.096.125-.152.082h-.002v.002c-.068.023-.146.036-.226.036h-1.549v-1.912h1.652c.117 0 .222.008.32.029.085.02.156.068.214.165l.057.11.04.12.01.036.146.01.057.004.022-.95h-3.969v.181l.141.014.138.033.136.076c.038.036.066.077.09.135l.004.001v.005c.025.058.037.117.037.185v3.941h.002l-.008.15.003.072v.079l-.003.15c-.006.082-.027.145-.062.21-.033.057-.089.105-.168.141l-.117.046-.133.03-.039.008-.013.13-.003.053h4.504v-.977H167.743zM172.707 29.995c-.029.09-.056.155-.087.188h-.002v.005c-.07.107-.153.195-.252.253-.107.067-.221.12-.344.154-.13.032-.263.058-.402.073-.141.013-.281.017-.41.017h-.64l.018-1.989h.792c.13 0 .268.002.401.014.172.016.335.067.49.151h.001c.169.091.29.207.363.354.08.147.12.302.12.46 0 .129-.019.234-.048.32zm1.708 3.546l-.144-.142-.078-.107h-.002c-.104-.132-.202-.271-.291-.42h-.001l-1.27-1.973c.034-.019.066-.032.121-.05h.002c.08-.039.164-.086.262-.145.1-.057.198-.128.291-.212h.004c.099-.087.184-.186.255-.301h.004c.105-.178.162-.38.162-.6 0-.21-.038-.387-.119-.53-.076-.137-.137-.24-.188-.308l-.002-.003c-.122-.134-.262-.242-.425-.316-.155-.067-.318-.123-.493-.158-.17-.035-.351-.058-.532-.062-.183-.007-.351-.009-.527-.009h-2.369V28.383l.126.018.134.033.14.068.107.114c.025.051.044.113.05.19.006.08.01.183.01.315v3.777c-.006.12-.01.226-.016.315-.004.083-.017.148-.037.186l-.094.13-.135.075-.13.041-.09.01-.048.006v.186h2.1v-.183l-.043-.009c-.133-.03-.227-.056-.283-.08l-.15-.093-.099-.15c-.014-.046-.02-.105-.027-.175l-.01-.143-.01-.151V31.16c.065.002.129.002.187.006.076.003.16.005.246.005.129 0 .253-.005.387-.014.114-.005.23-.018.34-.026l1.196 1.863c.07.109.144.218.227.338.088.118.192.222.317.305.075.058.159.097.239.124.08.031.156.049.235.063h-.002c.072.014.143.021.201.021H174.711v-.176l-.14-.05-.156-.079zM177.582 31.72h-.001c-.097-.103-.208-.202-.332-.297-.125-.085-.242-.172-.35-.25l-.475-.296c-.139-.095-.283-.2-.431-.315-.144-.11-.243-.255-.312-.43-.027-.078-.042-.15-.045-.214-.005-.063-.006-.114-.006-.14 0-.169.022-.312.078-.436.057-.13.126-.243.216-.32.089-.084.194-.154.319-.197.125-.047.258-.07.399-.07.196 0 .358.032.486.094v-.002c.13.068.233.143.313.233.08.092.143.185.187.285.043.104.086.2.116.276l.012.028h.173v-1.142l-.03-.015c-.064-.025-.133-.05-.217-.085-.087-.04-.183-.071-.29-.102-.107-.034-.228-.063-.363-.085-.136-.02-.285-.035-.45-.035-.056 0-.135.002-.232.01-.1.006-.214.022-.334.057-.125.038-.252.085-.382.173-.133.075-.259.178-.375.315h-.001c-.08.09-.166.222-.25.404-.094.19-.137.433-.137.729 0 .1.006.206.025.326.015.118.05.239.1.365.052.123.127.246.229.384.1.135.232.26.399.389l.003.005.157.11.16.102.522.341c.16.106.31.222.446.338.13.115.232.267.304.461v.004-.004c.016.036.036.097.056.182.023.079.032.173.032.29 0 .174-.021.306-.058.405v.005-.005c-.042.11-.077.193-.099.249-.12.206-.274.355-.463.45-.187.096-.393.146-.615.146-.14 0-.261-.02-.366-.05-.106-.033-.202-.073-.283-.121-.08-.048-.146-.102-.198-.159l-.13-.159-.082-.163c-.029-.06-.065-.145-.106-.26l-.011-.032-.122-.01-.057-.009v1.143l.03.018c.133.06.3.134.509.219.216.08.492.121.83.121.062 0 .15-.005.26-.01.109-.005.233-.023.368-.057.135-.036.275-.091.423-.169.152-.075.296-.187.435-.338.121-.126.216-.258.29-.388.07-.135.12-.26.158-.393.036-.121.056-.237.067-.348.008-.102.011-.183.011-.252 0-.511-.171-.948-.51-1.3M182.312 33.587l-.2-.117-.094-.154-.015-.125v-.006c-.01-.061-.017-.119-.017-.181v-3.8c0-.127.004-.237.004-.328.002-.092.013-.158.032-.204.023-.064.056-.11.098-.14l.136-.085.144-.038.104-.02.051-.007v-.177h-2.208V28.383l.165.026.155.04.161.086c.048.034.09.086.119.154.027.056.039.121.042.198.002.074.004.183.004.317v3.593c-.007.18-.01.32-.012.424-.005.092-.037.17-.095.232v-.002c-.063.07-.129.114-.2.14-.088.03-.174.047-.272.064l-.05.009v.182h2.237v-.178l-.04-.013c-.086-.02-.17-.04-.249-.068M182.601 29.154h.222l.01-.04c.004-.028.016-.077.032-.147.012-.055.052-.114.124-.165.064-.043.135-.071.229-.086.09-.02.228-.029.407-.034h1.307v4.361c0 .152-.022.266-.066.339-.038.07-.091.128-.158.17l-.188.077-.121.026-.044.008-.013.13-.007.053h2.171v-.184l-.045-.007c-.12-.025-.21-.051-.262-.08l-.152-.093-.1-.132-.039-.15c-.006-.06-.01-.125-.01-.206v-4.298h1.42c.21 0 .373.025.486.068.102.043.178.143.214.334l.007.04h.212v-.933h-5.636v.949z" mask="url(#prefix__b)"/>
        <path fill="#00517D" d="M192.26 28.205v.181l.045.005c.075.01.142.02.195.033.04.008.078.036.114.095l.043.092.003.053c0 .068-.022.138-.067.212l-.131.21-1.193 1.752-1.24-1.753v-.004c-.047-.052-.09-.124-.139-.205-.046-.083-.069-.158-.069-.23 0-.059.015-.099.04-.127l.103-.08.112-.038.075-.012.047-.006v-.178h-1.961V28.382l.04.007c.066.016.12.033.161.05l.112.066.094.092.104.126.08.106.08.1 1.735 2.432v1.634c0 .15-.006.263-.015.331v.007-.007c-.01.064-.043.125-.104.19l-.159.1c-.063.015-.138.03-.22.04l-.046.005-.012.132-.004.053h1.946v-.183l-.044-.008c-.03-.007-.083-.013-.152-.024l-.176-.083c-.087-.065-.13-.143-.145-.25-.016-.106-.02-.21-.02-.307v-1.588l1.736-2.533.166-.232c.056-.07.118-.131.192-.166l.146-.06.099-.023.042-.007v-.177h-1.614zM54.104 28.36v.054l.154.012.15.05.153.089c.043.039.078.085.1.164h.008v.006c.02.046.03.11.03.188v5.223c0 .118-.018.205-.042.259l-.004.003v.008c-.038.114-.094.186-.181.225-.098.047-.205.082-.323.114l-.045.008v.211h2.294V34.763l-.045-.008c-.118-.032-.23-.067-.333-.114-.09-.035-.158-.105-.21-.22l-.055-.136-.013-.15v-2.497h1.484c.154.006.31.012.466.027.141.014.245.068.322.176l.072.117c.018.05.034.117.054.2l.009.048h.231v-1.722H58.15l-.024.132-.041.133-.09.147-.147.102c-.066.032-.144.046-.24.05-.096.008-.223.008-.381.008h-1.484v-2.313h1.779c.14.002.278.011.413.038.127.023.22.08.302.197l.076.141.051.153.01.035h.228l.012-1.102h-4.509v.156z" mask="url(#prefix__b)"/>
        <path fill="#00517D" d="M62.757 28.357v.049l.09.016.095.036.111.05.092.082c.059.085.09.193.096.334.004.152.004.282.004.382v2.95c0 .156-.004.292-.013.41v.002c-.009.116-.018.222-.032.318-.014.088-.03.169-.052.247-.02.077-.041.152-.07.23-.038.095-.075.175-.113.248-.04.063-.07.115-.093.144-.043.055-.104.117-.177.186-.071.064-.16.121-.266.177-.104.054-.227.1-.363.137-.136.039-.293.06-.468.06-.26 0-.51-.05-.754-.162-.242-.1-.442-.273-.609-.513-.081-.125-.143-.24-.187-.361-.044-.126-.08-.252-.099-.374v-.003c-.019-.13-.034-.26-.039-.395-.003-.136-.006-.275-.006-.42V29.28c.003-.13.006-.242.011-.342.002-.092.017-.17.04-.236.024-.062.063-.118.12-.164.057-.045.149-.09.276-.123l.033-.008.013-.141.005-.06h-1.79v.192l.037.017c.153.047.254.1.297.142h.002l.002.003c.069.06.109.134.115.239.013.11.019.268.019.473v2.963l-.002.182c0 .221.009.406.025.552.022.178.055.345.1.497.056.178.137.356.247.532.105.184.251.343.432.486.181.153.401.267.663.356.266.089.574.135.934.135.368 0 .681-.048.942-.148.256-.1.474-.23.644-.39.166-.155.3-.328.397-.526.09-.185.162-.377.204-.555v-.002c.028-.12.05-.241.062-.358.016-.127.023-.24.027-.346.004-.102.006-.196.006-.274V29.245c0-.167.002-.295.003-.379.009-.083.03-.153.068-.217.045-.083.094-.13.156-.157.065-.03.143-.059.22-.078l.037-.012v-.197h-1.492v.152zM73.066 33.808l-.012.044-.073.226-.112.183c-.06.058-.123.094-.196.104-.082.017-.138.018-.163.018H72.5l-.176.02h-1.029c-.218-.008-.415-.018-.581-.021-.16-.01-.273-.044-.329-.088l-.06-.068-.034-.057c-.043-.099-.069-.204-.07-.323-.004-.128-.01-.24-.016-.348v-1.85h1.333c.136 0 .27.007.404.031.116.02.206.09.28.223l.037.1c.011.031.03.084.048.162l.01.042H72.52v-1.712h-.203l-.032.144-.046.138-.1.15-.15.1-.003.004c-.07.029-.143.04-.226.04H70.204v-2.302h1.657c.116 0 .223.013.324.036.084.024.153.084.216.198l.054.136.037.145.013.039.145.012.056.007.022-1.136h-3.97v.208l.14.013.137.05.136.088c.04.04.07.086.092.165h.002v.005c.029.07.043.142.043.221v4.74l-.008.178v.093l.002.088-.007.184c-.001.097-.025.181-.062.25-.032.074-.084.13-.168.177l-.116.052-.136.037-.036.01-.01.155-.004.055h4.503v-1.166h-.2zM79.465 28.358v.05l.041.008c.218.047.352.12.402.199v.002c.06.09.096.187.11.295v.006l.014.15v.048c-.006.07-.006.114-.006.14V33.1l-4.224-4.896h-1.386v.203l.049.008c.086.008.169.03.246.057.066.022.12.071.164.159l.003.001c.037.058.058.126.06.21l.002.002-.002-.001c.005.086.005.206.005.362v4.661c0 .088-.003.193-.013.318-.009.116-.038.206-.094.272v.001c-.062.081-.128.136-.204.15l-.003.004c-.09.018-.151.033-.179.04l-.036.004-.017.157-.004.055h1.694V34.66l-.043-.009c-.135-.03-.242-.079-.322-.135v-.002c-.074-.052-.126-.147-.154-.292l-.016-.142-.002-.213v-4.551l4.887 5.658h.163v-5.739c.003-.14.008-.269.015-.391.005-.11.054-.205.16-.291l.123-.076c.044-.023.112-.046.199-.06l.04-.01.002-.044.013-.097.004-.06h-1.69v.152zM65.57 28.345v.045l.047.008c.1.014.196.044.288.083.077.03.139.092.176.189.037.102.056.293.053.57v5.024c0 .235-.013.468-.045.692-.028.22-.126.425-.294.609l-.002.006c-.065.07-.14.137-.219.207-.088.066-.145.107-.155.119l-.043.024.093.146.021.036.047-.02c.16-.067.29-.121.38-.17.092-.048.172-.095.243-.138.205-.121.368-.255.489-.397.116-.143.205-.28.266-.419.058-.133.099-.261.117-.388.015-.125.025-.23.03-.316V29.24c0-.23.01-.406.034-.52.02-.105.082-.182.206-.243l.114-.05c.024-.011.082-.022.168-.029l.046-.008v-.185h-2.06v.14z" mask="url(#prefix__b)"/>
    </g>
</svg>
